<svg width="232" height="248" viewBox="0 0 232 248" fill="none" xmlns="http://www.w3.org/2000/svg">
<g clip-path="url(#clip0_1229_754)">
<path d="M60.8246 120.529C74.7386 106.579 74.7386 83.9608 60.8246 70.0104C46.9106 56.06 24.3516 56.06 10.4376 70.0104C-3.47645 83.9608 -3.47645 106.579 10.4376 120.529C24.3516 134.48 46.9106 134.48 60.8246 120.529Z" fill="#E7B784"/>
<path d="M2.81012 81.3343L13.1938 74.0215L12.5541 73.111L3.75254 79.3071C3.42126 79.9714 3.10141 80.6414 2.81012 81.3286V81.3343Z" fill="#579A54"/>
<path d="M12.1486 78.8375L11.5089 77.927L1.50787 84.9707C1.34223 85.5261 1.18802 86.0873 1.04523 86.6543L12.1486 78.8375Z" fill="#579A54"/>
<path d="M11.1034 83.6478L10.4637 82.7373L0.411231 89.8211C0.33698 90.3135 0.274152 90.8175 0.222748 91.3157L11.1091 83.6536L11.1034 83.6478Z" fill="#579A54"/>
<path d="M9.42416 87.5533L0.0285581 94.1675C0.0171348 94.534 0 94.8948 0 95.2613C0 95.3529 0.00571161 95.4503 0.00571161 95.5419L10.0582 88.4581L9.41845 87.5476L9.42416 87.5533Z" fill="#579A54"/>
<path d="M11.3147 92.0201L10.675 91.1096L0.154205 98.5197C0.194187 98.9435 0.239879 99.3615 0.291284 99.7853L11.3147 92.0258V92.0201Z" fill="#579A54"/>
<path d="M12.5656 95.582L11.9259 94.6714L0.742523 102.551C0.822486 102.946 0.919583 103.336 1.01097 103.725L12.5656 95.5877V95.582Z" fill="#579A54"/>
<path d="M13.8221 99.1382L13.1824 98.2277L1.73633 106.285C1.85627 106.651 1.97622 107.024 2.10758 107.384L13.8221 99.1382Z" fill="#579A54"/>
<path d="M14.8616 103.324L14.2219 102.414L3.23849 110.15C3.39271 110.494 3.55835 110.832 3.72398 111.17L14.8616 103.324Z" fill="#579A54"/>
<path d="M15.9068 107.51L15.2671 106.6L5.12903 113.741C5.32322 114.062 5.52313 114.371 5.72875 114.68L15.9068 107.51Z" fill="#579A54"/>
<path d="M16.9521 111.697L16.3124 110.786L7.40796 117.057C7.63642 117.349 7.85918 117.646 8.09335 117.933L16.9521 111.697Z" fill="#579A54"/>
<path d="M17.3576 114.972L10.0524 120.12C10.3152 120.389 10.5779 120.659 10.8521 120.922L17.9973 115.888L17.3576 114.978V114.972Z" fill="#579A54"/>
<path d="M23.8403 116.513L23.2006 115.602L12.9539 122.817C13.251 123.064 13.5594 123.298 13.8678 123.539L23.846 116.513H23.8403Z" fill="#579A54"/>
<path d="M29.689 117.142L29.0493 116.232L16.2552 125.24C16.5922 125.457 16.9292 125.675 17.2719 125.887L29.689 117.142Z" fill="#579A54"/>
<path d="M33.6528 119.026L33.0131 118.116L19.9221 127.336C20.3048 127.525 20.6932 127.702 21.0873 127.88L33.6528 119.032V119.026Z" fill="#579A54"/>
<path d="M37.828 121.329L37.1883 120.418L24.6456 129.254C25.0911 129.397 25.548 129.535 25.9993 129.661L37.828 121.329Z" fill="#579A54"/>
<path d="M42.0032 123.631L41.3635 122.72L30.203 130.577C30.7456 130.657 31.2882 130.726 31.8422 130.783L42.0032 123.625V123.631Z" fill="#579A54"/>
<path d="M46.1784 125.933L45.5387 125.022L37.1198 130.955C37.8394 130.926 38.5534 130.88 39.2616 130.812L46.1784 125.938V125.933Z" fill="#579A54"/>
<path d="M43.5853 130.084C44.6705 129.838 45.7386 129.54 46.7838 129.197L55.574 123.006L54.9343 122.096L43.5853 130.09V130.084Z" fill="#579A54"/>
<path d="M38.9703 127.639C58.6477 127.639 74.5994 111.646 74.5994 91.917C74.5994 72.1881 58.6477 56.1947 38.9703 56.1947C19.2929 56.1947 3.34128 72.1881 3.34128 91.917C3.34128 111.646 19.2929 127.639 38.9703 127.639Z" fill="#EDCB30"/>
<path d="M38.9703 123.293C56.2535 123.293 70.2642 109.245 70.2642 91.9169C70.2642 74.5886 56.2535 60.5411 38.9703 60.5411C21.6872 60.5411 7.67639 74.5886 7.67639 91.9169C7.67639 109.245 21.6872 123.293 38.9703 123.293Z" fill="#579A54"/>
<path d="M38.2964 106.314H37.9651C37.0627 106.314 36.2516 106.285 35.5377 106.233C34.8237 106.176 34.144 106.09 33.5043 105.964C32.8589 105.838 32.2249 105.684 31.5909 105.489C30.9627 105.294 30.3001 105.065 29.6204 104.79C29.7004 103.994 29.8546 103.187 30.0716 102.379C30.2887 101.572 30.5514 100.724 30.8541 99.8425C32.0079 100.312 33.0874 100.633 34.104 100.81C35.115 100.988 36.2002 101.079 37.3539 101.079C39.0789 101.079 40.4154 100.787 41.3635 100.192C42.3059 99.602 42.78 98.6457 42.78 97.3286C42.78 96.67 42.6486 96.126 42.3916 95.7022C42.1289 95.2785 41.8033 94.9234 41.4035 94.6485C41.0037 94.3737 40.5639 94.1389 40.067 93.9499C39.5758 93.7552 39.096 93.5548 38.6276 93.3314L36.4515 92.3808C35.5491 91.9971 34.7266 91.5905 33.9841 91.1668C33.2416 90.743 32.6076 90.2334 32.0707 89.6435C31.5338 89.0537 31.1283 88.3608 30.837 87.5648C30.5514 86.7688 30.4029 85.7953 30.4029 84.6385C30.4029 82.1646 31.0997 80.2176 32.4991 78.786C33.8984 77.3601 35.8289 76.4896 38.2964 76.1918V71.8225C38.8732 71.6564 39.4615 71.5762 40.0612 71.5762C40.661 71.5762 41.2378 71.6564 41.8718 71.8225V76.0659C42.9685 76.146 44.0251 76.3064 45.0361 76.5412C46.047 76.7759 47.1151 77.0852 48.2403 77.4689C48.0746 79.0608 47.6349 80.6299 46.9266 82.1646C46.5154 81.9986 46.0984 81.8325 45.6758 81.6722C45.2474 81.5061 44.7962 81.3686 44.3164 81.2598C43.8366 81.151 43.294 81.0594 42.6943 80.9907C42.0889 80.922 41.4035 80.8876 40.6381 80.8876C40.1698 80.8876 39.7014 80.922 39.2216 80.9907C38.7419 81.0594 38.3135 81.2026 37.9251 81.4259C37.5424 81.6492 37.2283 81.9528 36.977 82.3536C36.7314 82.7545 36.6057 83.2641 36.6057 83.8998C36.6057 84.4495 36.7028 84.9134 36.8913 85.3028C37.0798 85.6865 37.3425 86.0129 37.6738 86.2706C38.0051 86.534 38.3706 86.7573 38.7818 86.952C39.1931 87.1467 39.6043 87.3243 40.0156 87.4903L42.483 88.5211C43.5225 88.9621 44.4706 89.403 45.3216 89.8382C46.1727 90.2792 46.8923 90.806 47.4806 91.4245C48.0689 92.0429 48.5259 92.7989 48.8571 93.6922C49.1884 94.5855 49.3483 95.7079 49.3483 97.0537C49.3483 99.3042 48.7086 101.211 47.4349 102.763C46.1613 104.315 44.305 105.369 41.8661 105.918V110.7C41.2892 110.866 40.7009 110.946 40.1012 110.946C39.5015 110.946 38.8961 110.866 38.2907 110.7V106.331L38.2964 106.314Z" fill="white"/>
<path d="M201.5 194.044C216.9 194.044 229.384 181.528 229.384 166.087C229.384 150.647 216.9 138.13 201.5 138.13C186.1 138.13 173.616 150.647 173.616 166.087C173.616 181.528 186.1 194.044 201.5 194.044Z" fill="#E7B784"/>
<path d="M175.821 155.184L183.942 149.463L183.44 148.747L176.552 153.598C176.295 154.119 176.043 154.646 175.815 155.184H175.821Z" fill="#579A54"/>
<path d="M183.126 153.225L182.623 152.51L174.798 158.024C174.667 158.46 174.547 158.9 174.438 159.341L183.126 153.225Z" fill="#579A54"/>
<path d="M182.309 156.999L181.812 156.283L173.941 161.827C173.884 162.216 173.839 162.606 173.793 162.995L182.309 156.999Z" fill="#579A54"/>
<path d="M180.995 160.052L173.644 165.228C173.639 165.515 173.622 165.795 173.622 166.087C173.622 166.162 173.622 166.236 173.622 166.305L181.492 160.762L180.99 160.046L180.995 160.052Z" fill="#579A54"/>
<path d="M182.475 163.55L181.972 162.835L173.736 168.636C173.764 168.968 173.804 169.294 173.844 169.626L182.469 163.55H182.475Z" fill="#579A54"/>
<path d="M183.451 166.334L182.949 165.618L174.193 171.78C174.256 172.089 174.33 172.392 174.404 172.696L183.446 166.328L183.451 166.334Z" fill="#579A54"/>
<path d="M184.434 169.117L183.931 168.401L174.975 174.706C175.067 174.992 175.164 175.284 175.267 175.565L184.434 169.111V169.117Z" fill="#579A54"/>
<path d="M185.25 172.392L184.748 171.676L176.152 177.729C176.278 177.999 176.403 178.262 176.529 178.525L185.245 172.387L185.25 172.392Z" fill="#579A54"/>
<path d="M186.067 175.674L185.565 174.958L177.631 180.547C177.78 180.799 177.94 181.039 178.1 181.286L186.067 175.674Z" fill="#579A54"/>
<path d="M186.884 178.949L186.381 178.233L179.413 183.141C179.59 183.37 179.767 183.605 179.95 183.828L186.884 178.949Z" fill="#579A54"/>
<path d="M187.204 181.509L181.487 185.535C181.692 185.747 181.898 185.953 182.109 186.159L187.701 182.219L187.198 181.503L187.204 181.509Z" fill="#579A54"/>
<path d="M192.276 182.717L191.773 182.001L183.754 187.648C183.988 187.843 184.228 188.026 184.468 188.209L192.276 182.712V182.717Z" fill="#579A54"/>
<path d="M196.851 183.204L196.354 182.488L186.341 189.538C186.604 189.709 186.867 189.881 187.135 190.042L196.851 183.198V183.204Z" fill="#579A54"/>
<path d="M199.958 184.681L199.455 183.966L189.209 191.181C189.511 191.33 189.814 191.467 190.117 191.605L199.952 184.681H199.958Z" fill="#579A54"/>
<path d="M203.225 186.485L202.722 185.77L192.904 192.681C193.252 192.796 193.607 192.899 193.966 193.002L203.225 186.485Z" fill="#579A54"/>
<path d="M206.492 188.283L205.989 187.568L197.256 193.718C197.679 193.781 198.107 193.838 198.536 193.884L206.486 188.283H206.492Z" fill="#579A54"/>
<path d="M209.759 190.087L209.256 189.372L202.665 194.01C203.225 193.987 203.785 193.953 204.339 193.895L209.753 190.082L209.759 190.087Z" fill="#579A54"/>
<path d="M207.726 193.334C208.577 193.14 209.411 192.911 210.227 192.636L217.11 187.791L216.607 187.075L207.726 193.329V193.334Z" fill="#579A54"/>
<path d="M204.116 191.422C219.516 191.422 232 178.905 232 163.465C232 148.024 219.516 135.508 204.116 135.508C188.716 135.508 176.232 148.024 176.232 163.465C176.232 178.905 188.716 191.422 204.116 191.422Z" fill="#EDCB30"/>
<path d="M221.435 180.831C231 171.241 231 155.694 221.435 146.104C211.871 136.514 196.364 136.514 186.799 146.104C177.235 155.694 177.235 171.241 186.799 180.831C196.364 190.42 211.871 190.42 221.435 180.831Z" fill="#579A54"/>
<path d="M203.585 174.734H203.328C202.619 174.734 201.985 174.711 201.431 174.671C200.872 174.626 200.341 174.557 199.838 174.46C199.335 174.362 198.833 174.242 198.341 174.087C197.85 173.938 197.33 173.755 196.799 173.538C196.862 172.913 196.982 172.283 197.153 171.654C197.325 171.018 197.53 170.359 197.765 169.672C198.667 170.039 199.512 170.291 200.306 170.428C201.1 170.571 201.945 170.64 202.848 170.64C204.202 170.64 205.247 170.411 205.984 169.947C206.72 169.483 207.092 168.739 207.092 167.702C207.092 167.187 206.989 166.763 206.789 166.431C206.583 166.099 206.326 165.824 206.018 165.606C205.709 165.394 205.361 165.211 204.973 165.057C204.584 164.908 204.213 164.747 203.847 164.57L202.14 163.825C201.431 163.528 200.786 163.207 200.209 162.875C199.632 162.543 199.13 162.142 198.713 161.684C198.296 161.22 197.976 160.676 197.747 160.057C197.525 159.433 197.41 158.671 197.41 157.767C197.41 155.831 197.959 154.302 199.05 153.185C200.146 152.069 201.654 151.387 203.585 151.152V147.734C204.036 147.602 204.499 147.539 204.967 147.539C205.435 147.539 205.886 147.602 206.383 147.734V151.055C207.24 151.118 208.068 151.244 208.862 151.427C209.656 151.611 210.49 151.851 211.37 152.155C211.238 153.403 210.896 154.628 210.342 155.831C210.022 155.699 209.69 155.573 209.359 155.442C209.028 155.31 208.674 155.207 208.297 155.121C207.92 155.035 207.497 154.966 207.029 154.909C206.555 154.858 206.018 154.829 205.418 154.829C205.053 154.829 204.681 154.858 204.31 154.909C203.933 154.961 203.596 155.075 203.299 155.247C202.996 155.419 202.751 155.659 202.557 155.974C202.362 156.283 202.265 156.69 202.265 157.183C202.265 157.612 202.34 157.979 202.488 158.276C202.637 158.58 202.842 158.832 203.099 159.032C203.356 159.238 203.648 159.416 203.967 159.565C204.287 159.714 204.613 159.857 204.933 159.983L206.863 160.79C207.68 161.134 208.417 161.477 209.085 161.821C209.748 162.165 210.313 162.577 210.776 163.064C211.238 163.55 211.598 164.14 211.855 164.839C212.112 165.538 212.244 166.414 212.244 167.467C212.244 169.231 211.747 170.72 210.747 171.934C209.748 173.148 208.297 173.973 206.389 174.402V178.142C205.938 178.273 205.475 178.336 205.007 178.336C204.539 178.336 204.064 178.273 203.59 178.142V174.723L203.585 174.734Z" fill="white"/>
<path d="M203.9 53.8422C217.48 48.2021 223.93 32.5918 218.304 18.9756C212.679 5.35931 197.109 -1.10669 183.529 4.53335C169.948 10.1734 163.499 25.7837 169.124 39.4C174.749 53.0162 190.319 59.4822 203.9 53.8422Z" fill="#E7B784"/>
<path d="M169.201 18.7773L176.957 13.3142L176.477 12.6328L169.903 17.2655C169.658 17.7637 169.418 18.262 169.201 18.7773Z" fill="#579A54"/>
<path d="M176.175 16.9162L175.695 16.2347L168.224 21.4974C168.098 21.9155 167.984 22.3335 167.881 22.7573L176.175 16.9162Z" fill="#579A54"/>
<path d="M175.392 20.5125L174.912 19.8311L167.402 25.1224C167.345 25.4889 167.299 25.8668 167.259 26.2391L175.386 20.5125H175.392Z" fill="#579A54"/>
<path d="M174.136 23.4273L167.116 28.3693C167.11 28.6442 167.093 28.9133 167.093 29.1882C167.093 29.2569 167.093 29.3257 167.093 29.4001L174.604 24.1088L174.124 23.4273H174.136Z" fill="#579A54"/>
<path d="M175.552 26.7659L175.072 26.0844L167.213 31.622C167.242 31.937 167.276 32.2519 167.316 32.5669L175.546 26.7716L175.552 26.7659Z" fill="#579A54"/>
<path d="M176.483 29.423L176.003 28.7416L167.647 34.6228C167.71 34.9148 167.779 35.2069 167.847 35.4989L176.477 29.423H176.483Z" fill="#579A54"/>
<path d="M177.42 32.0801L176.94 31.3987L168.39 37.4173C168.481 37.6922 168.567 37.967 168.67 38.2362L177.42 32.0744V32.0801Z" fill="#579A54"/>
<path d="M178.202 35.2069L177.723 34.5254L169.521 40.3035C169.641 40.5612 169.761 40.8131 169.88 41.0651L178.202 35.2069Z" fill="#579A54"/>
<path d="M178.979 38.3336L178.499 37.6521L170.926 42.9835C171.069 43.224 171.223 43.4531 171.371 43.6879L178.973 38.3336H178.979Z" fill="#579A54"/>
<path d="M179.762 41.4603L179.282 40.7788L172.628 45.4631C172.799 45.6807 172.965 45.9041 173.142 46.116L179.756 41.4545L179.762 41.4603Z" fill="#579A54"/>
<path d="M180.064 43.9055L174.604 47.748C174.798 47.9485 174.998 48.1489 175.198 48.3436L180.538 44.5812L180.059 43.8998L180.064 43.9055Z" fill="#579A54"/>
<path d="M184.908 45.0565L184.428 44.3751L176.774 49.7695C176.997 49.9527 177.226 50.1303 177.454 50.3078L184.908 45.0623V45.0565Z" fill="#579A54"/>
<path d="M189.271 45.5261L188.792 44.8446L179.236 51.5733C179.487 51.7394 179.739 51.8997 179.996 52.0543L189.271 45.5261Z" fill="#579A54"/>
<path d="M192.236 46.9348L191.756 46.2534L181.978 53.1424C182.263 53.2856 182.555 53.4173 182.846 53.549L192.236 46.9405V46.9348Z" fill="#579A54"/>
<path d="M195.354 48.6528L194.874 47.9713L185.502 54.5683C185.839 54.6771 186.176 54.7745 186.513 54.8718L195.349 48.6528H195.354Z" fill="#579A54"/>
<path d="M198.473 50.3708L197.993 49.6893L189.654 55.5591C190.06 55.622 190.465 55.6736 190.876 55.7137L198.467 50.3708H198.473Z" fill="#579A54"/>
<path d="M201.591 52.0944L201.112 51.413L194.823 55.8453C195.36 55.8224 195.891 55.7881 196.422 55.7365L201.591 52.0944Z" fill="#579A54"/>
<path d="M199.655 55.1925C200.466 55.0093 201.26 54.7859 202.043 54.5282L208.611 49.9012L208.131 49.2197L199.649 55.1925H199.655Z" fill="#579A54"/>
<path d="M222.106 32.816C225.483 18.472 216.622 4.09938 202.316 0.713886C188.009 -2.67161 173.674 6.21203 170.297 20.5561C166.921 34.9001 175.781 49.2727 190.088 52.6582C204.394 56.0437 218.73 47.1601 222.106 32.816Z" fill="#EDCB30"/>
<path d="M205.154 48.3423C217.082 43.3885 222.747 29.6775 217.806 17.718C212.865 5.75851 199.19 0.0792526 187.261 5.03305C175.333 9.98684 169.669 23.6978 174.61 35.6573C179.55 47.6168 193.226 53.2961 205.154 48.3423Z" fill="#579A54"/>
<path d="M195.703 37.4402H195.457C194.783 37.4402 194.178 37.4173 193.647 37.3772C193.115 37.3371 192.607 37.2684 192.127 37.1768C191.647 37.0851 191.168 36.9649 190.699 36.8217C190.231 36.6785 189.74 36.501 189.226 36.3006C189.289 35.705 189.397 35.1037 189.563 34.5025C189.728 33.8954 189.923 33.2655 190.145 32.607C191.008 32.9563 191.813 33.1968 192.573 33.3285C193.332 33.4602 194.138 33.5289 195 33.5289C196.291 33.5289 197.291 33.3113 197.993 32.8647C198.701 32.4237 199.05 31.7079 199.05 30.7229C199.05 30.2304 198.953 29.8239 198.758 29.5089C198.564 29.1882 198.319 28.9305 198.022 28.7244C197.725 28.5182 197.393 28.3464 197.022 28.2032C196.657 28.0601 196.297 27.9055 195.948 27.7394L194.32 27.0293C193.647 26.743 193.03 26.4395 192.476 26.1188C191.922 25.7981 191.448 25.4201 191.048 24.9792C190.648 24.5382 190.339 24.0171 190.128 23.4273C189.911 22.8317 189.808 22.1045 189.808 21.2397C189.808 19.3901 190.328 17.9355 191.373 16.8704C192.419 15.8052 193.864 15.1581 195.703 14.9291V11.6649C196.131 11.539 196.571 11.4817 197.022 11.4817C197.473 11.4817 197.902 11.5447 198.376 11.6649V14.8375C199.192 14.9004 199.981 15.015 200.74 15.1925C201.494 15.3643 202.294 15.5991 203.133 15.8854C203.014 17.0765 202.682 18.2448 202.151 19.3958C201.843 19.2698 201.534 19.1495 201.214 19.0293C200.895 18.9033 200.558 18.806 200.203 18.7201C199.844 18.6399 199.438 18.5712 198.993 18.5196C198.541 18.4681 198.027 18.4452 197.456 18.4452C197.108 18.4452 196.754 18.4738 196.394 18.5196C196.034 18.5712 195.714 18.68 195.429 18.8403C195.143 19.0064 194.909 19.2354 194.72 19.5332C194.538 19.831 194.446 20.2147 194.446 20.69C194.446 21.1023 194.515 21.4516 194.663 21.738C194.806 22.0243 195 22.2648 195.246 22.4595C195.491 22.6542 195.766 22.826 196.074 22.9692C196.382 23.1123 196.691 23.244 196.994 23.37L198.838 24.1374C199.615 24.4638 200.323 24.7959 200.957 25.1223C201.591 25.4488 202.128 25.8439 202.568 26.3077C203.008 26.7716 203.351 27.3328 203.596 28.0028C203.842 28.6671 203.967 29.5089 203.967 30.511C203.967 32.1946 203.493 33.6148 202.539 34.7773C201.586 35.9341 200.198 36.7244 198.376 37.1309V40.7043C197.947 40.8303 197.508 40.8876 197.056 40.8876C196.605 40.8876 196.154 40.8246 195.703 40.7043V37.4402Z" fill="white"/>
<path d="M172.348 19.098H72.2405C66.4432 19.098 61.7482 23.8053 61.7482 29.612V237.48C61.7482 243.293 66.4432 248 72.2348 248H172.348C178.139 248 182.834 243.293 182.834 237.48V29.612C182.834 23.8053 178.139 19.098 172.348 19.098ZM177.34 235.402C177.34 239.152 174.307 242.188 170.572 242.188H74.0168C70.2757 242.188 67.2428 239.152 67.2428 235.402V31.6964C67.2428 27.9456 70.2757 24.9105 74.0168 24.9105H170.572C174.307 24.9105 177.34 27.9456 177.34 31.6964V235.402Z" fill="#280032"/>
<path d="M177.34 31.6964V235.402C177.34 239.152 174.307 242.187 170.572 242.187H74.0168C70.2757 242.187 67.2428 239.152 67.2428 235.402V31.6964C67.2428 27.9455 70.2757 24.9105 74.0168 24.9105H170.572C174.307 24.9105 177.34 27.9455 177.34 31.6964Z" fill="#FFFFFD"/>
<path opacity="0.2" d="M146.081 108.146C159.696 94.4948 159.696 72.3626 146.081 58.7119C132.466 45.0611 110.391 45.0611 96.7761 58.7119C83.161 72.3626 83.161 94.4948 96.7761 108.146C110.391 121.796 132.466 121.796 146.081 108.146Z" fill="#579A54"/>
<path d="M143.818 62.8832C143.19 62.3621 142.265 62.448 141.745 63.0722L138.038 67.5332H100.684C100.496 67.4759 100.279 67.4587 99.9818 67.4587C99.1707 67.4645 98.5196 68.1975 98.5196 69.0106C98.5196 69.0622 98.5196 69.1137 98.5253 69.1653C98.5596 70.5053 98.7024 79.7422 98.7937 85.9555C98.8052 86.6828 99.3421 87.2898 100.056 87.3986L137.25 92.7644V94.4423H104.694C103.877 94.4423 103.22 95.1066 103.22 95.9197C103.22 96.7329 103.883 97.3972 104.694 97.3972H138.729C139.546 97.3972 140.203 96.7329 140.203 95.9197V69.5432L144.013 64.962C144.532 64.332 144.447 63.4043 143.824 62.8832H143.818ZM117.048 86.7687V70.4938H122.765V87.6907L117.025 86.8603C117.025 86.826 117.042 86.8031 117.042 86.7687H117.048ZM114.101 86.4366L108.384 85.6119V70.4881H114.101V86.4366ZM125.718 70.4881H130.887V88.8532L125.718 88.1087V70.4881ZM101.518 71.5647C101.512 71.1696 101.507 70.8088 101.495 70.4881H105.431V85.1824L101.718 84.6499L101.512 71.5647H101.518ZM133.834 89.2827V70.4881H137.256V89.7751L133.834 89.2827Z" fill="#579A54"/>
<path d="M107.732 99.1724C106.316 99.1724 105.168 100.323 105.168 101.744C105.168 103.164 106.316 104.315 107.732 104.315C109.149 104.315 110.297 103.164 110.297 101.744C110.297 100.323 109.149 99.1724 107.732 99.1724Z" fill="#579A54"/>
<path d="M137.062 99.1724C135.645 99.1724 134.497 100.323 134.497 101.744C134.497 103.164 135.645 104.315 137.062 104.315C138.478 104.315 139.626 103.164 139.626 101.744C139.626 100.323 138.478 99.1724 137.062 99.1724Z" fill="#579A54"/>
<path d="M91.416 138.696H153.238C154.598 138.696 155.706 139.802 155.706 141.17V156.46C155.706 157.823 154.604 158.934 153.238 158.934H91.416C90.0566 158.934 88.9486 157.829 88.9486 156.46V141.17C88.9486 139.807 90.0509 138.696 91.416 138.696Z" fill="#579A54"/>
<path d="M97.9935 153.37V145.67H100.887C101.517 145.67 102.038 145.78 102.449 146C102.867 146.213 103.175 146.503 103.373 146.869C103.578 147.236 103.681 147.654 103.681 148.123C103.681 148.556 103.582 148.959 103.384 149.333C103.193 149.7 102.892 149.997 102.482 150.224C102.071 150.452 101.539 150.565 100.887 150.565H99.5335V153.37H97.9935ZM99.5335 149.322H100.788C101.264 149.322 101.605 149.212 101.811 148.992C102.016 148.772 102.119 148.483 102.119 148.123C102.119 147.749 102.016 147.456 101.811 147.243C101.605 147.031 101.264 146.924 100.788 146.924H99.5335V149.322ZM103.524 153.37L106.329 145.67H108.089L110.894 153.37H109.255L107.198 147.419L105.141 153.37H103.524ZM104.756 151.643L105.163 150.444H109.123L109.519 151.643H104.756ZM112.982 153.37V150.686L110.375 145.67H112.124L113.818 149.256H113.697L115.391 145.67H117.118L114.522 150.686V153.37H112.982ZM97.9935 167.37V159.67H99.5335L103.021 164.906V159.67H104.561V167.37H103.021L99.5335 162.145V167.37H97.9935ZM109.579 167.502C108.846 167.502 108.2 167.334 107.643 166.996C107.086 166.659 106.649 166.193 106.334 165.599C106.019 164.998 105.861 164.305 105.861 163.52C105.861 162.736 106.019 162.046 106.334 161.452C106.649 160.851 107.086 160.382 107.643 160.044C108.2 159.707 108.846 159.538 109.579 159.538C110.312 159.538 110.958 159.707 111.515 160.044C112.08 160.382 112.516 160.851 112.824 161.452C113.132 162.046 113.286 162.736 113.286 163.52C113.286 164.305 113.132 164.998 112.824 165.599C112.516 166.193 112.08 166.659 111.515 166.996C110.958 167.334 110.312 167.502 109.579 167.502ZM109.579 166.116C110.019 166.116 110.397 166.01 110.712 165.797C111.035 165.585 111.284 165.288 111.46 164.906C111.636 164.518 111.724 164.056 111.724 163.52C111.724 162.985 111.636 162.527 111.46 162.145C111.284 161.757 111.035 161.456 110.712 161.243C110.397 161.031 110.019 160.924 109.579 160.924C109.146 160.924 108.769 161.031 108.446 161.243C108.123 161.456 107.874 161.757 107.698 162.145C107.522 162.527 107.434 162.985 107.434 163.52C107.434 164.056 107.522 164.518 107.698 164.906C107.874 165.288 108.123 165.585 108.446 165.797C108.769 166.01 109.146 166.116 109.579 166.116ZM115.775 167.37L113.762 159.67H115.412L116.721 165.632L118.283 159.67H119.977L121.484 165.632L122.804 159.67H124.454L122.397 167.37H120.549L119.108 161.837L117.612 167.37H115.775ZM125.899 164.796L125.723 159.67H127.373L127.208 164.796H125.899ZM126.559 167.425C126.273 167.425 126.042 167.341 125.866 167.172C125.69 166.996 125.602 166.787 125.602 166.545C125.602 166.296 125.69 166.087 125.866 165.918C126.042 165.75 126.273 165.665 126.559 165.665C126.838 165.665 127.062 165.75 127.23 165.918C127.406 166.087 127.494 166.296 127.494 166.545C127.494 166.787 127.406 166.996 127.23 167.172C127.062 167.341 126.838 167.425 126.559 167.425Z" fill="#FFFFFD"/>
</g>
<defs>
<clipPath id="clip0_1229_754">
<rect width="232" height="248" fill="white"/>
</clipPath>
</defs>
</svg>
