<svg width="305" height="266" viewBox="0 0 305 266" fill="none" xmlns="http://www.w3.org/2000/svg">
<g clip-path="url(#clip0_1229_845)">
<path d="M284.545 85.515C283.487 84.7141 281.946 84.6286 280.802 85.2973C279.285 82.2337 275.06 80.8808 272.049 82.4981C271.263 79.2013 268.011 76.6587 264.611 76.7053C261.218 76.7442 258.021 79.3568 257.32 82.6769C257.211 83.2057 257.134 83.7811 256.752 84.1698C256.138 84.7919 255.118 84.5819 254.239 84.5197C251.493 84.302 248.723 86.2303 247.976 88.8896L285.836 88.7496C286.171 87.4666 285.595 86.3236 284.537 85.5228L284.545 85.515Z" fill="#F5F5F5"/>
<path d="M60.9844 19.6098C59.9263 18.8089 58.3857 18.7234 57.242 19.3921C55.7247 16.3285 51.4999 14.9756 48.4888 16.5929C47.7029 13.2961 44.4506 10.7535 41.0505 10.8001C37.6582 10.839 34.4681 13.4516 33.7601 16.7717C33.6511 17.3005 33.5733 17.8758 33.1999 18.2646C32.5852 18.8944 31.5659 18.6767 30.6867 18.6145C27.9402 18.3968 25.1703 20.3329 24.4233 22.9843L62.2838 22.8444C62.6184 21.5614 62.0426 20.4184 60.9844 19.6176V19.6098Z" fill="#F5F5F5"/>
<path d="M128.831 93.9514C127.773 93.1505 126.233 93.065 125.089 93.7337C123.572 90.6701 119.347 89.3172 116.336 90.9345C115.55 87.6377 112.298 85.0951 108.897 85.1417C105.505 85.1806 102.315 87.7932 101.607 91.1133C101.498 91.6421 101.42 92.2175 101.039 92.6062C100.424 93.236 99.4051 93.0183 98.5259 92.9561C95.7793 92.7384 93.0095 94.6667 92.2625 97.326L130.123 97.186C130.458 95.903 129.882 94.76 128.824 93.9592L128.831 93.9514Z" fill="#F5F5F5"/>
<path d="M270.789 171.069H160.537C158.569 171.069 156.958 169.467 156.958 167.492V7.00569C156.958 5.03848 158.561 3.42896 160.537 3.42896H270.789C272.757 3.42896 274.368 5.03071 274.368 7.00569V167.5C274.368 169.467 272.765 171.077 270.789 171.077V171.069ZM160.537 3.58447C158.647 3.58447 157.114 5.11624 157.114 7.00569V167.5C157.114 169.389 158.647 170.921 160.537 170.921H270.789C272.679 170.921 274.212 169.389 274.212 167.5V7.00569C274.212 5.11624 272.679 3.58447 270.789 3.58447H160.537Z" fill="#E6E6E6"/>
<path d="M143.653 171.069H33.3944C31.4259 171.069 29.8153 169.467 29.8153 167.492V7.00569C29.8153 5.03848 31.4181 3.42896 33.3944 3.42896H143.653C145.622 3.42896 147.233 5.03071 147.233 7.00569V167.5C147.233 169.467 145.63 171.077 143.653 171.077V171.069ZM33.3944 3.58447C31.5037 3.58447 29.9709 5.11624 29.9709 7.00569V167.5C29.9709 169.389 31.5037 170.921 33.3944 170.921H143.653C145.544 170.921 147.077 169.389 147.077 167.5V7.00569C147.077 5.11624 145.544 3.58447 143.653 3.58447H33.3944Z" fill="#E6E6E6"/>
<path d="M305 178.829H0V178.984H305V178.829Z" fill="#E6E6E6"/>
<path d="M41.3151 187.522H31.5193V187.677H41.3151V187.522Z" fill="#E6E6E6"/>
<path d="M136.573 185.873H103.918V186.029H136.573V185.873Z" fill="#E6E6E6"/>
<path d="M64.0422 193.182H41.9297V193.338H64.0422V193.182Z" fill="#E6E6E6"/>
<path d="M257.141 185.788H230.796V185.943H257.141V185.788Z" fill="#E6E6E6"/>
<path d="M266.431 185.788H262.572V185.943H266.431V185.788Z" fill="#E6E6E6"/>
<path d="M225.762 189.59H192.889V189.746H225.762V189.59Z" fill="#E6E6E6"/>
<path d="M282.32 179.031C282.53 177.211 282.187 174.863 279.324 174.163C274.461 172.974 271.59 170.198 271.738 167.057C271.893 163.915 266.789 160.852 262.954 163.799C259.118 166.746 259.623 161.528 254.512 160.261C249.4 158.993 245.058 162.073 246.466 164.88C247.875 167.686 242.817 169.444 236.78 167.057C230.734 164.67 224.082 169.016 225.365 172.414C226.649 175.812 225.599 176.224 221.771 175.065C218.682 174.148 213.632 176.068 213.064 179.039H282.327L282.32 179.031Z" fill="#E6EDEF"/>
<path d="M271.574 50.5874C270.664 50.0431 269.622 49.7787 268.563 49.8332C267.918 49.0556 268.439 47.866 269.069 47.0651C269.699 46.2642 270.462 45.3545 270.221 44.3592C269.871 42.8663 267.77 42.8119 266.268 43.1073C265.848 42.1354 265.568 41.1013 265.451 40.0516C265.179 39.0174 264.362 37.9755 263.304 38.0688C262.246 38.1621 261.709 39.3129 260.728 39.5384C260.651 39.5539 260.573 39.5539 260.503 39.5617C259.826 37.9366 259.087 35.915 261.366 34.9975C262.137 34.7798 262.814 34.3133 263.273 33.6601C263.685 32.6571 263.327 31.4985 262.409 30.9154C261.506 30.3711 260.456 30.1067 259.398 30.1611C258.744 29.3758 259.273 28.1939 259.896 27.3931C260.518 26.5922 261.296 25.6747 261.055 24.6872C260.689 23.1943 258.604 23.1399 257.095 23.4353C256.675 22.4634 256.402 21.4292 256.278 20.3796C256.005 19.3454 255.243 18.3035 254.138 18.3968C253.033 18.4901 252.543 19.6409 251.563 19.8664C250.59 20.0919 249.485 19.1277 248.567 18.3812C248.412 18.2568 248.24 18.148 248.061 18.0469C248.435 17.4871 248.684 16.8806 248.536 16.2508C248.186 14.7579 246.085 14.7034 244.584 14.9989C244.156 14.0114 243.883 12.9617 243.767 11.8887C243.494 10.8546 242.677 9.81264 241.619 9.90595C240.561 9.99926 240.024 11.15 239.044 11.3755C237.916 11.6477 236.966 10.6368 236.048 9.8904C235.122 9.14395 233.613 8.67742 233.006 9.66491C232.633 10.2558 232.85 11.0723 232.477 11.6632C231.816 12.6974 230.259 12.0364 229.279 11.3211C228.299 10.6057 226.766 9.96038 226.081 10.9556C225.91 11.2822 225.786 11.6321 225.708 11.9898C225.412 12.8373 224.712 13.4049 223.957 13.9337C223.537 12.9617 223.265 11.9354 223.14 10.8857C222.868 9.85152 222.105 8.8096 221.001 8.91846C219.903 9.01954 219.405 10.1548 218.425 10.3803C217.445 10.6057 216.348 9.65713 215.43 8.89513C214.504 8.14091 212.994 7.68215 212.38 8.66964C212.014 9.26058 212.232 10.0926 211.851 10.6679C211.197 11.7021 209.633 11.0489 208.668 10.3336C207.703 9.61826 206.147 8.96511 205.463 9.96038C205.291 10.2869 205.167 10.6368 205.089 10.9945C204.63 12.3241 203.198 12.9773 202.094 13.8248C200.981 14.6723 200.094 16.3674 201.059 17.4015C201.526 17.9069 202.343 18.1169 202.576 18.77C202.864 19.5787 202.039 20.3173 201.37 20.8461C200.281 21.7714 200.071 24.555 201.526 25.3248C201.782 25.457 202.078 25.5503 202.35 25.6591C201.238 25.8846 200.304 24.9127 199.394 24.174C198.468 23.4276 196.958 22.9532 196.344 23.933C195.978 24.5239 196.196 25.3559 195.815 25.9313C195.161 26.9654 193.597 26.3123 192.617 25.5969C191.644 24.8816 190.104 24.2284 189.419 25.2237C189.256 25.5503 189.131 25.9002 189.046 26.2578C188.586 27.5874 187.155 28.2406 186.034 29.0881C184.914 29.9356 184.043 31.6307 185 32.6648C185.459 33.1703 186.276 33.3802 186.517 34.0333C186.758 34.6865 185.964 35.5807 185.311 36.1094C184.945 36.4204 184.681 36.9336 184.541 37.5168C184.136 37.3535 183.747 37.1202 183.42 36.8792C182.455 36.1638 180.899 35.5107 180.222 36.5059C180.043 36.8325 179.919 37.1824 179.841 37.5401C179.382 38.8697 177.95 39.5228 176.846 40.3704C175.733 41.2179 174.846 42.913 175.811 43.9471C176.278 44.4525 177.095 44.6625 177.328 45.3156C177.616 46.1242 176.791 46.8474 176.122 47.3917C175.087 48.3247 174.823 51.1161 176.278 51.8781C176.892 52.1891 177.779 52.2902 177.927 52.9667C178.075 53.6432 177.452 54.0008 177.048 54.4907C176.075 55.7503 176.309 57.562 177.569 58.534C177.686 58.6195 177.803 58.705 177.935 58.775C178.285 58.9383 178.713 59.0782 178.837 59.4515C178.9 59.7236 178.868 60.0035 178.752 60.2601C178.612 60.7655 178.565 61.2865 178.62 61.8074C178.62 61.9863 178.69 62.1573 178.806 62.2973C178.939 62.3906 179.102 62.4373 179.265 62.4295C181.343 62.5228 182.378 61.7763 183.654 63.6036C183.762 63.7902 183.91 63.9457 184.089 64.0623C184.268 64.1556 184.463 64.2101 184.657 64.2101C186.097 64.3345 187.03 63.4325 188.353 63.2692C188.898 63.1993 189.302 63.2459 189.66 63.347C189.543 64.1245 189.831 64.941 190.501 65.4542C190.594 65.5241 190.695 65.5941 190.804 65.6485C191.076 65.7807 191.419 65.8896 191.52 66.1773C191.566 66.395 191.543 66.6205 191.45 66.8226C191.341 67.2192 191.31 67.6313 191.349 68.0356C191.317 68.2767 191.481 68.4944 191.722 68.5255C191.769 68.5255 191.815 68.5255 191.854 68.5255C193.504 68.5955 194.29 68.0201 195.301 69.4508C195.387 69.5907 195.503 69.7151 195.643 69.8162C195.784 69.8862 195.939 69.9251 196.103 69.9328C197.231 70.0261 197.978 69.3186 199.005 69.1864C200.444 69.0076 200.748 69.7462 202.016 70.3372C204.039 71.3558 205.004 70.7726 205.377 69.4119C205.47 69.0309 205.533 68.6343 205.556 68.2378C205.704 65.8041 208.038 66.1617 210.014 65.8507C211.563 65.5941 207.462 61.7064 210.582 60.4156C211.189 60.2523 211.718 59.8869 212.084 59.3815C212.403 58.5884 212.115 57.6786 211.399 57.2121C210.683 56.7845 209.866 56.5823 209.034 56.6212C208.832 56.3724 208.777 56.0691 208.816 55.7581C208.839 55.7892 208.863 55.8203 208.886 55.8514C208.995 56.038 209.143 56.1935 209.322 56.3179C209.501 56.4035 209.703 56.4579 209.905 56.4657C211.345 56.5823 212.278 55.6881 213.601 55.5248C215.43 55.2838 215.811 56.2324 217.421 56.9866C218.612 57.5853 219.514 57.7253 220.191 57.5309C220.378 57.9119 220.643 58.2618 220.993 58.534C221.109 58.6273 221.242 58.7128 221.374 58.7828C221.724 58.9461 222.152 59.086 222.277 59.4592C222.331 59.7314 222.3 60.0113 222.191 60.2679C222.051 60.7733 222.004 61.2943 222.059 61.8152C222.059 61.9941 222.121 62.1729 222.245 62.3051C222.378 62.3984 222.541 62.445 222.704 62.4373C224.782 62.5306 225.817 61.7841 227.085 63.6114C227.194 63.798 227.342 63.9535 227.521 64.0701C227.7 64.1634 227.902 64.2101 228.104 64.2178C229.536 64.3423 230.477 63.4403 231.8 63.277C233.628 63.0515 234.01 63.9846 235.62 64.7388C238.133 65.9751 239.355 65.2131 239.83 63.4947C239.962 63.0049 240.04 62.5072 240.055 62.0018C240.203 59.5681 242.016 59.3426 244.023 59.1638C244.109 59.9024 244.475 60.6022 245.113 61.0999C245.229 61.1932 245.362 61.2787 245.494 61.3487C245.836 61.512 246.264 61.6519 246.396 62.0096C246.451 62.2817 246.42 62.5694 246.311 62.826C246.171 63.3314 246.116 63.8524 246.163 64.3734C246.163 64.5522 246.225 64.7233 246.35 64.8632C246.49 64.9565 246.653 65.0032 246.817 64.9954C248.894 65.0887 249.929 64.3423 251.197 66.1695C251.306 66.3561 251.454 66.5116 251.633 66.6283C251.812 66.7216 252.006 66.776 252.201 66.776C253.64 66.9004 254.589 65.9984 255.897 65.8352C257.725 65.6097 258.106 66.5427 259.717 67.297C262.23 68.5488 263.452 67.8257 263.926 66.1073C264.051 65.6174 264.121 65.1198 264.144 64.6144C264.331 61.5042 267.256 62.0018 269.808 61.5897C271.777 61.2554 266.572 56.2946 270.532 54.6928C271.302 54.4829 271.979 54.0086 272.438 53.3555C272.851 52.3524 272.493 51.1939 271.574 50.6107V50.5874ZM245.004 54.9961C245.237 55.1283 245.416 55.2916 245.471 55.5404C245.525 55.7659 245.471 55.9603 245.377 56.1469C245.229 55.7736 245.097 55.3849 245.004 54.9961Z" fill="#E6EDEF"/>
<path d="M250.956 57.0566C250.956 57.0566 245.72 64.4589 243.907 66.8071C242.102 69.1475 233.076 83.7577 231.847 93.4382C231.714 94.4723 231.574 95.3587 231.45 96.1363C235.332 121.749 234.726 168.612 234.562 176.636H222.245C222.129 167.585 221.086 84.8851 220.697 82.3659C220.292 79.6911 215.142 69.5207 207.205 65.3375C199.269 61.1621 192.43 47.3061 192.43 47.3061H194.959C194.959 47.3061 199.658 55.7814 206.373 60.4778C207.33 61.1387 208.334 61.7297 209.368 62.2584C209.345 57.1577 210.232 52.0958 211.991 47.3061L213.36 48.558C211.516 56.1158 211.765 60.9988 212.325 63.728C214.854 64.9098 217.18 66.4727 219.234 68.3544C226.167 59.3426 230.057 38.7531 230.057 38.7531L231.839 39.725C231.318 43.986 230.532 48.2081 229.497 52.3757C228.198 57.702 224.37 67.7401 222.596 72.2966C224.704 75.3524 226.447 78.6492 227.785 82.117C227.972 81.8216 228.198 81.5494 228.462 81.3162C232.975 77.234 241.464 57.9663 241.464 57.9663C243.541 53.4876 240.374 41.7311 240.374 41.7311H242.747L243.782 52.0181L249.742 45.5255L250.831 46.4275L244.615 54.5684L241.355 64.8554L249.843 55.4704L250.933 57.0644L250.956 57.0566Z" fill="#E6EDEF"/>
<path d="M84.4974 179.031C84.6764 176.862 84.3807 174.047 81.852 173.215C77.5493 171.792 75.0129 168.48 75.1529 164.716C75.293 160.961 70.7724 157.298 67.3879 160.821C63.9955 164.343 64.4468 158.107 59.9263 156.591C55.4057 155.075 51.5699 158.752 52.8148 162.111C54.0597 165.47 49.5936 167.57 44.2483 164.716C38.903 161.863 33.0209 167.057 34.1569 171.115C35.2928 175.182 34.3592 175.672 30.9824 174.28C28.2514 173.176 23.7853 175.478 23.2874 179.023H84.5052L84.4974 179.031Z" fill="#E6EDEF"/>
<path d="M111.356 59.3504C110.5 58.8372 109.504 58.5884 108.508 58.635C107.902 57.8964 108.392 56.7689 108.991 56.0147C109.59 55.2605 110.306 54.3974 110.08 53.4565C109.746 52.0414 107.761 51.9947 106.338 52.2669C105.941 51.3494 105.676 50.3697 105.56 49.3744C105.303 48.3947 104.533 47.415 103.529 47.5005C102.525 47.586 102.019 48.6746 101.093 48.8923C101.023 48.9079 100.953 48.9079 100.876 48.9079C100.238 47.3761 99.5374 45.4555 101.693 44.5925C102.424 44.3903 103.062 43.9393 103.498 43.3251C103.887 42.3764 103.544 41.2801 102.681 40.728C101.825 40.2071 100.829 39.9583 99.833 40.0127C99.2106 39.2662 99.7163 38.1466 100.308 37.3923C100.899 36.6381 101.63 35.7673 101.405 34.8342C101.062 33.4191 99.0861 33.3724 97.6545 33.6446C97.2577 32.7193 97.0009 31.7473 96.8764 30.7521C96.6196 29.7724 95.896 28.7926 94.8534 28.8782C93.8108 28.9637 93.344 30.0523 92.4181 30.27C91.4922 30.4877 90.4574 29.5702 89.5782 28.8704C89.4304 28.7538 89.267 28.6449 89.1036 28.5516C89.4537 28.0151 89.6949 27.4475 89.5548 26.8488C89.2203 25.4336 87.2362 25.387 85.8124 25.6591C85.4078 24.726 85.1432 23.7308 85.0343 22.7122C84.7775 21.7325 84.0073 20.7528 83.0036 20.8383C81.9999 20.9238 81.4941 22.0124 80.5682 22.2301C79.4945 22.4867 78.6075 21.5303 77.7283 20.8305C76.8569 20.123 75.4175 19.6797 74.8495 20.6128C74.4994 21.1726 74.7017 21.9502 74.3515 22.51C73.7213 23.4897 72.2508 22.8599 71.3249 22.1835C70.399 21.507 68.9518 20.9005 68.2982 21.8413C68.1348 22.1524 68.0181 22.4789 67.9481 22.8211C67.668 23.6219 67.0066 24.1662 66.2908 24.6638C65.894 23.7463 65.6372 22.7744 65.5205 21.7791C65.2638 20.7994 64.5402 19.8197 63.4976 19.913C62.455 20.0141 61.9881 21.0793 61.0622 21.2971C60.1364 21.5148 59.1015 20.6128 58.2223 19.8975C57.3509 19.1821 55.9115 18.7467 55.3357 19.6797C54.9934 20.2396 55.1957 21.0249 54.8378 21.577C54.2153 22.5567 52.737 21.9424 51.8267 21.266C50.9163 20.5895 49.438 19.9674 48.7922 20.9161C48.6288 21.2271 48.5121 21.5536 48.4421 21.8958C48.0064 23.1554 46.6525 23.7697 45.6022 24.5783C44.5518 25.3792 43.7037 26.9809 44.6218 27.9607C45.0653 28.4427 45.8356 28.6371 46.0534 29.2592C46.3258 30.0212 45.5399 30.721 44.9175 31.2186C43.8827 32.0895 43.6881 34.7331 45.0653 35.4562C45.3065 35.5807 45.5866 35.674 45.8511 35.775C44.8008 35.985 43.9138 35.0675 43.0579 34.3677C42.1865 33.6601 40.7471 33.2091 40.1713 34.1422C39.829 34.702 40.0312 35.4873 39.6733 36.0394C39.0509 37.0191 37.5726 36.4049 36.6467 35.7284C35.7208 35.0519 34.2736 34.4299 33.62 35.3785C33.4644 35.6895 33.3477 36.0161 33.2699 36.3582C32.8342 37.6178 31.4804 38.2321 30.4222 39.0408C29.364 39.8416 28.5393 41.4434 29.4418 42.4231C29.8775 42.9052 30.6478 43.0996 30.8735 43.7216C31.0991 44.3436 30.3522 45.1834 29.7375 45.681C29.3874 45.9765 29.1384 46.4664 29.0139 47.0106C28.6327 46.8551 28.2592 46.6374 27.9557 46.4042C27.0454 45.7277 25.5671 45.1056 24.9291 46.0543C24.7579 46.3653 24.6412 46.6919 24.5634 47.034C24.1277 48.2936 22.7738 48.9079 21.7235 49.7165C20.6731 50.5174 19.825 52.1192 20.7431 53.0989C21.1866 53.5809 21.9569 53.7753 22.1747 54.3974C22.4471 55.1594 21.6612 55.8514 21.0388 56.3568C20.0584 57.2432 19.8094 59.8791 21.1866 60.6022C21.7624 60.8977 22.6105 60.991 22.7505 61.6364C22.8906 62.274 22.2992 62.6161 21.918 63.0826C20.9999 64.2723 21.2177 65.9907 22.4082 66.9082C22.5171 66.9937 22.6338 67.0714 22.7505 67.1336C23.0851 67.2892 23.4897 67.4213 23.6064 67.7712C23.6608 68.0278 23.6375 68.3 23.5286 68.5332C23.3963 69.0075 23.3574 69.5052 23.4041 69.995C23.4041 70.1661 23.4663 70.3294 23.583 70.4538C23.7075 70.5393 23.8631 70.586 24.0187 70.5782C25.9795 70.6637 26.9676 69.9562 28.1736 71.6901C28.2747 71.8689 28.4148 72.0167 28.586 72.1255C28.7494 72.2188 28.9361 72.2655 29.1228 72.2655C30.4844 72.3821 31.3714 71.5268 32.6163 71.3713C33.1298 71.3091 33.5189 71.348 33.8534 71.4413C33.7445 72.18 34.0168 72.9497 34.6471 73.4396C34.7404 73.5096 34.8338 73.5718 34.9349 73.6262C35.1917 73.7506 35.5107 73.8517 35.6119 74.1238C35.6508 74.326 35.6274 74.5437 35.5418 74.7303C35.4407 75.1035 35.4096 75.4923 35.4407 75.8811C35.4096 76.1066 35.5652 76.3165 35.7908 76.3476C35.8297 76.3476 35.8764 76.3476 35.9153 76.3476C37.4792 76.4176 38.2261 75.8655 39.1754 77.2185C39.261 77.3507 39.3699 77.4673 39.5022 77.5606C39.6344 77.6306 39.7823 77.6695 39.9379 77.6695C41.0116 77.755 41.7119 77.0941 42.6844 76.9619C44.046 76.7986 44.3339 77.4906 45.5321 78.0505C47.4462 79.0146 48.3565 78.4626 48.7144 77.1796C48.8078 76.8142 48.8622 76.4487 48.8778 76.0677C49.0179 73.7584 51.2275 74.1083 53.1027 73.8128C54.5654 73.564 50.6907 69.8862 53.6395 68.6732C54.2153 68.5177 54.7133 68.1756 55.0634 67.6935C55.3668 66.9393 55.0945 66.084 54.4176 65.6408C53.7407 65.2364 52.9626 65.042 52.1768 65.0809C51.9823 64.8399 51.9356 64.56 51.9745 64.2645C51.9978 64.2956 52.0212 64.3189 52.0445 64.35C52.1534 64.5211 52.2935 64.6766 52.4569 64.7932C52.6281 64.8788 52.8148 64.9254 53.0093 64.9332C54.3709 65.042 55.2579 64.1945 56.5028 64.039C58.2301 63.8135 58.5958 64.7077 60.113 65.423C61.2412 65.9907 62.0971 66.1228 62.7273 65.9362C62.9062 66.2939 63.1552 66.6282 63.4898 66.8926C63.6065 66.9781 63.7232 67.0637 63.8477 67.1336C64.1823 67.2892 64.5869 67.4213 64.7036 67.7712C64.758 68.0278 64.7269 68.2922 64.6258 68.5332C64.4935 69.0075 64.4546 69.5052 64.5013 69.995C64.5013 70.1661 64.5635 70.3294 64.6802 70.4538C64.8047 70.5393 64.9603 70.586 65.1159 70.5782C67.0767 70.6637 68.0648 69.9562 69.263 71.6901C69.3642 71.8612 69.5042 72.0089 69.6754 72.1255C69.8466 72.2111 70.0333 72.2655 70.2278 72.2655C71.5816 72.3821 72.4764 71.5268 73.7213 71.3713C75.4486 71.1536 75.8143 72.04 77.3315 72.7553C79.7046 73.9217 80.8639 73.2063 81.3152 71.5812C81.4397 71.1225 81.5097 70.6482 81.533 70.1661C81.6731 67.8645 83.3926 67.6546 85.2911 67.4758C85.3689 68.1756 85.719 68.8365 86.3181 69.303C86.4348 69.3885 86.5515 69.4741 86.676 69.5441C87.0028 69.6996 87.3996 69.8317 87.5319 70.1739C87.5863 70.4382 87.5552 70.7026 87.4541 70.9514C87.3218 71.4257 87.2751 71.9234 87.314 72.4132C87.314 72.5843 87.3763 72.7476 87.493 72.872C87.6253 72.9575 87.7809 73.0042 87.9365 72.9964C89.8972 73.0819 90.8853 72.3743 92.0835 74.1083C92.1847 74.2793 92.3247 74.4271 92.4959 74.5437C92.6593 74.637 92.846 74.6837 93.0328 74.6837C94.3944 74.8003 95.2892 73.945 96.5263 73.7895C98.2536 73.5718 98.6193 74.4582 100.136 75.1735C102.51 76.3632 103.669 75.6712 104.12 74.0461C104.237 73.5795 104.307 73.113 104.322 72.6309C104.501 69.684 107.271 70.1583 109.683 69.7695C111.551 69.4585 106.618 64.7543 110.368 63.2459C111.099 63.0437 111.737 62.6005 112.173 61.9785C112.562 61.0299 112.22 59.9335 111.356 59.3815V59.3504ZM86.2092 63.518C86.427 63.6424 86.5982 63.798 86.6527 64.0312C86.6994 64.2412 86.6527 64.4278 86.5593 64.6066C86.4193 64.2489 86.2948 63.8835 86.2092 63.518Z" fill="#E6EDEF"/>
<path d="M91.8424 65.4775C91.8424 65.4775 86.8861 72.4832 85.1744 74.6992C83.4626 76.9152 74.9195 90.7401 73.768 99.8996C73.6435 100.879 73.5112 101.711 73.3945 102.45C77.067 126.686 76.499 171.03 76.3434 178.627H64.688C64.5791 170.058 63.591 91.8053 63.2253 89.4183C62.844 86.8834 57.9734 77.2574 50.4573 73.3074C42.949 69.3497 36.4755 56.2402 36.4755 56.2402H38.872C38.872 56.2402 43.3225 64.2567 49.6714 68.7043C50.5818 69.3263 51.531 69.894 52.5114 70.3916C52.488 65.563 53.3283 60.7733 54.9934 56.2402L56.2927 57.4298C54.5421 64.5833 54.7833 69.2019 55.3124 71.7834C57.701 72.9031 59.9107 74.3804 61.8481 76.161C68.4072 67.6313 72.0874 48.1459 72.0874 48.1459L73.7758 49.0712C73.2778 53.1066 72.5387 57.1033 71.5583 61.0454C70.329 66.0917 66.711 75.5856 65.0304 79.8933C67.0222 82.7857 68.6717 85.9037 69.9399 89.185C70.1189 88.9051 70.329 88.6485 70.5779 88.4308C74.8495 84.5663 82.8791 66.3328 82.8791 66.3328C84.8398 62.0951 81.8443 50.9684 81.8443 50.9684H84.0929L85.0732 60.7033L90.7064 54.5607L91.7412 55.416L85.8591 63.1215L82.7779 72.8564L90.8075 63.9768L91.8424 65.4853V65.4775Z" fill="#E6EDEF"/>
<path d="M281.969 19.9208L279.822 40.8758H269.1L266.953 19.9208H281.969Z" fill="#E6EDEF"/>
<path d="M276.461 36.3738H272.469V178.798H276.461V36.3738Z" fill="#E6EDEF"/>
<path d="M278.701 39.6006H270.228L268.345 21.196H280.577L278.701 39.6006Z" fill="#E6EDEF"/>
<path d="M273.348 39.8883H272.773L272.142 20.5584H272.718L273.348 39.8883Z" fill="#E6EDEF"/>
<path d="M274.461 13.1794C274.461 13.1794 268.104 19.5631 263.226 19.5631L264.735 20.5739H284.163L285.673 19.5631C280.826 19.5787 274.461 13.1794 274.461 13.1794Z" fill="#E6EDEF"/>
<path d="M205.097 179.785H208.201L201.852 143.94H198.74L205.097 179.785Z" fill="#E6EDEF"/>
<path d="M108.493 179.785H111.605L105.248 143.94H102.136L108.493 179.785Z" fill="#E6EDEF"/>
<path d="M203.479 161.863H81.4552V165.004H203.479V161.863Z" fill="#E6EDEF"/>
<path d="M176.425 179.785H173.321L179.678 143.94H182.782L176.425 179.785Z" fill="#E6EDEF"/>
<path d="M79.829 179.785H76.7168L83.0736 143.94H86.178L79.829 179.785Z" fill="#E6EDEF"/>
<path d="M108.018 142.541H111.115L116.289 113.779H113.2L108.018 142.541Z" fill="#E6EDEF"/>
<path d="M197.713 142.541H200.81L205.984 113.779H202.895L197.713 142.541Z" fill="#E6EDEF"/>
<path d="M152.866 142.541H155.955L161.136 113.779H158.04L152.866 142.541Z" fill="#E6EDEF"/>
<path d="M102.673 115.738H212.185L213.15 110.35H103.645L102.673 115.738Z" fill="#E6EDEF"/>
<path d="M100.922 125.481H210.427L211.399 120.093H101.895L100.922 125.481Z" fill="#E6EDEF"/>
<path d="M99.1639 135.216H208.676L209.649 129.828H100.136L99.1639 135.216Z" fill="#E6EDEF"/>
<path d="M207.867 141.693H76.0632V145.417H207.867V141.693Z" fill="#E6EDEF"/>
<path d="M164.817 54.2108C163.759 53.4099 162.218 53.3244 161.074 53.9931C159.557 50.9295 155.332 49.5766 152.321 51.1939C151.535 47.8971 148.283 45.3545 144.883 45.4011C141.49 45.44 138.293 48.0526 137.592 51.3727C137.483 51.9015 137.406 52.4769 137.024 52.8656C136.41 53.4877 135.39 53.2777 134.511 53.2155C131.765 52.9978 128.995 54.9261 128.248 57.5854L166.108 57.4454C166.443 56.1624 165.867 55.0194 164.809 54.2186L164.817 54.2108Z" fill="#F5F5F5"/>
<path d="M123.066 23.2954C122.49 22.8599 121.65 22.8133 121.027 23.1787C120.203 21.5148 117.9 20.7761 116.266 21.6547C115.838 19.8586 114.072 18.4823 112.22 18.5057C110.376 18.529 108.641 19.9519 108.252 21.7558C108.189 22.0435 108.15 22.3545 107.948 22.5645C107.614 22.9066 107.061 22.79 106.579 22.7511C105.085 22.6345 103.575 23.6842 103.171 25.1226L123.766 25.0449C123.945 24.3451 123.634 23.723 123.058 23.2876L123.066 23.2954Z" fill="#F5F5F5"/>
<path d="M184.533 11.7332C183.124 10.6757 181.078 10.5513 179.553 11.4377C177.538 7.36338 171.913 5.56724 167.906 7.71328C166.863 3.32012 162.529 -0.0544508 158.016 -2.22179e-05C153.504 0.0544063 149.255 3.53006 148.314 7.94654C148.166 8.64634 148.065 9.41611 147.567 9.9293C146.75 10.7613 145.389 10.4814 144.229 10.3881C140.572 10.1004 136.892 12.6663 135.896 16.1964L186.268 16.0097C186.711 14.3069 185.949 12.7829 184.541 11.7177L184.533 11.7332Z" fill="#F0F0F0"/>
<path d="M277.97 262.26C277.97 264.328 220.923 266 150.555 266C80.187 266 23.1395 264.328 23.1395 262.26C23.1395 260.192 80.187 258.52 150.555 258.52C220.923 258.52 277.97 260.192 277.97 262.26Z" fill="#F5F5F5"/>
<path d="M143.848 244.19C143.498 243.599 142.704 242.868 142.152 242.448C141.599 242.036 140.845 241.826 140.207 242.09C139.39 242.425 139.016 243.428 139.125 244.299C139.234 245.169 139.654 246.281 140.152 247.004C142.276 250.115 144.237 252.953 147.52 255.27C147.52 251.413 145.809 247.486 143.848 244.19Z" fill="#263238"/>
<path d="M154.655 244.726C153.924 244.322 152.562 244.897 151.893 245.395C150.57 246.39 149.761 247.432 148.952 248.87C147.925 250.705 147.808 253.287 147.676 254.92C150.275 252.813 152.912 250.659 154.694 247.829C155.005 247.339 155.293 246.802 155.348 246.227C155.402 245.651 155.177 245.006 154.663 244.726H154.655Z" fill="#263238"/>
<path d="M144.649 248.707C146.182 251.18 147.287 253.917 147.902 256.755" stroke="black" stroke-width="0.5" stroke-linecap="round" stroke-linejoin="round"/>
<path d="M150.555 249.967C149.263 251.514 148.244 253.279 147.559 255.176" stroke="black" stroke-width="0.5" stroke-linecap="round" stroke-linejoin="round"/>
<path d="M121.237 51.3338C126.007 46.0076 125.548 37.8355 120.226 33.0692C114.896 28.3028 106.719 28.7615 101.949 34.08C98.2691 38.1932 97.7167 43.9937 100.098 48.6202L98.7048 52.2436L102.813 52.1891C102.867 52.2358 102.914 52.2902 102.969 52.3369C108.298 57.1032 116.476 56.6445 121.245 51.3261L121.237 51.3338Z" fill="#579A54"/>
<path d="M118.903 29.8423C122.669 31.724 125.353 35.604 125.797 39.7872" stroke="#579A54" stroke-width="0.5" stroke-linecap="round" stroke-linejoin="round"/>
<path d="M125.929 41.7155C126.045 42.3453 126.022 42.9985 125.875 43.6283" stroke="#579A54" stroke-width="0.5" stroke-linecap="round" stroke-linejoin="round"/>
<path d="M111.333 48.2158L105.404 43.7994L106.944 41.7311L110.92 44.6935L116.39 38.1777L118.366 39.8339L111.333 48.2158Z" fill="white"/>
<path d="M235.231 140.845C235.231 140.845 238.911 149.259 238.911 150.635L237.324 151.327C237.324 151.327 237.807 155.184 236.429 155.184C235.052 155.184 232.897 153.115 232.897 153.115C232.897 153.115 230.088 153.939 229.536 152.011C229.536 152.011 228.019 153.115 227.606 150.223C227.194 147.33 227.606 140.169 227.606 140.169L235.013 137.518L235.231 140.853V140.845Z" fill="#8E4B4C"/>
<path d="M236.142 93.236C236.78 95.7009 235.153 144.881 235.153 144.881L229.108 142.805L225.708 96.4317L236.142 93.236Z" fill="#8E4B4C"/>
<path d="M225.739 68.751C225.739 68.751 231.777 69.2642 233.916 75.5623C235.885 81.3628 239.798 97.0771 239.798 97.0771L224.51 99.3865L220.401 83.4622L225.739 68.7588V68.751Z" fill="#EDCB30"/>
<path opacity="0.4" d="M233.317 98.0491L232.026 83.3378L235.153 97.7769L233.317 98.0491Z" fill="black"/>
<path d="M239.767 160.72C239.767 160.72 238.491 152.703 237.597 151.809C236.702 150.915 231.497 150.192 230.672 150.915C229.847 151.638 227.381 160.129 227.381 160.129L224.852 160.479C224.852 160.479 227.941 149.717 231.722 149.647C235.511 149.577 238.631 150.643 239.16 151.739C239.69 152.827 242.273 160.735 242.273 160.735H239.767V160.72Z" fill="#B97964"/>
<path d="M208.692 203.018L212.092 159.328L240.149 160.066L251.111 159.328L255.157 204.861L238.32 207.077L208.692 203.018Z" fill="#7D8488"/>
<path d="M239.464 160.043L238.32 207.077L255.157 204.861L251.112 159.328L239.464 160.043Z" fill="#B97964"/>
<path d="M239.464 160.043L238.32 207.077L255.157 204.861L251.112 159.328L239.464 160.043Z" fill="#61686B"/>
<path d="M237.394 160.72C237.394 160.72 236.118 152.703 235.223 151.809C234.329 150.915 229.123 150.192 228.299 150.915C227.474 151.638 225.008 160.129 225.008 160.129L222.479 160.479C222.479 160.479 225.568 149.717 229.349 149.647C233.138 149.577 236.258 150.643 236.787 151.739C237.316 152.827 239.9 160.735 239.9 160.735H237.394V160.72Z" fill="#B97964"/>
<path d="M201.393 230.66L189.053 227.068C183.514 233.172 179.328 239.664 175.834 241.803L176.324 246.118L183.265 246.32C183.265 246.32 193.885 236.173 201.393 230.66Z" fill="#8E4B4C"/>
<path d="M185.583 244.213L183.451 241.756C180.354 242.316 180.137 241.072 180.533 238.552C179.996 237.767 179.016 238.28 178.744 238.412L172.722 241.289C172.216 241.523 171.998 242.129 172.231 242.635C172.27 242.728 172.325 242.806 172.395 242.883C174.278 245.053 175.165 246.079 177.507 248.785L184.673 257.05C186.626 259.305 189.302 257.805 188.711 256.693C186.019 251.716 184.688 247.696 184.782 245.356C184.782 244.936 185.163 245.037 185.591 244.213H185.583Z" fill="#579A54"/>
<path d="M185.28 246.647C184.665 246.102 183.801 245.854 182.984 245.978" stroke="#263238" stroke-width="0.5" stroke-linecap="round" stroke-linejoin="round"/>
<path d="M185.404 248.482C184.789 247.937 183.926 247.689 183.109 247.813" stroke="#263238" stroke-width="0.5" stroke-linecap="round" stroke-linejoin="round"/>
<path d="M185.902 250.472C185.287 249.928 184.424 249.679 183.607 249.804" stroke="#263238" stroke-width="0.5" stroke-linecap="round" stroke-linejoin="round"/>
<path opacity="0.7" d="M172.224 242.627C172.263 242.72 172.317 242.798 172.387 242.876C174.27 245.045 175.157 246.071 177.499 248.777L184.665 257.043C185.723 258.263 186.984 258.38 187.832 258.053C187.528 257.711 173.165 241.39 173.056 241.118L172.613 241.344C172.177 241.608 171.998 242.16 172.224 242.627Z" fill="white"/>
<path d="M227.318 232.9L217.188 240.8C218.9 248.863 221.724 256.047 221.413 260.137L225.202 262.268L229.427 256.763C229.427 256.763 227.404 242.222 227.326 232.907L227.318 232.9Z" fill="#8E4B4C"/>
<path d="M229.52 254.135L226.089 254.438C224.65 257.439 223.451 256.848 221.537 254.959C220.534 254.928 220.37 256.094 220.316 256.413L219.055 263.356C218.946 263.94 219.328 264.499 219.903 264.608C220.005 264.632 220.113 264.632 220.215 264.624C223.241 264.352 224.673 264.227 228.447 263.893L239.97 262.866C243.113 262.587 243.479 259.367 242.164 259.189C236.227 258.419 231.956 257.074 230.01 255.55C229.653 255.285 229.972 255.029 229.528 254.142L229.52 254.135Z" fill="#579A54"/>
<path d="M231.427 255.907C230.578 256.102 229.824 256.685 229.427 257.463" stroke="#263238" stroke-width="0.5" stroke-linecap="round" stroke-linejoin="round"/>
<path d="M233.076 256.934C232.228 257.128 231.473 257.711 231.084 258.489" stroke="#263238" stroke-width="0.5" stroke-linecap="round" stroke-linejoin="round"/>
<path d="M235.091 257.742C234.243 257.937 233.488 258.52 233.099 259.298" stroke="#263238" stroke-width="0.5" stroke-linecap="round" stroke-linejoin="round"/>
<path opacity="0.7" d="M219.903 264.608C220.005 264.631 220.113 264.631 220.215 264.624C223.241 264.352 224.673 264.227 228.447 263.893L239.97 262.866C241.666 262.719 242.553 261.7 242.802 260.775C242.327 260.821 219.437 263.038 219.125 262.96L219.04 263.473C219.001 264.009 219.359 264.499 219.903 264.6V264.608Z" fill="white"/>
<path d="M189.754 244.726C191.504 243.295 232.243 198.034 234.189 184.715C236.134 171.395 234.531 130.053 234.531 130.053L218.308 132.145L210.777 190.803L178.199 234.735L189.754 244.726Z" fill="#263238"/>
<path opacity="0.4" d="M189.754 244.726C191.504 243.295 232.243 198.034 234.189 184.715C236.134 171.395 234.531 130.053 234.531 130.053L218.308 132.145L210.777 190.803L178.199 234.735L189.754 244.726Z" fill="black"/>
<path d="M199.51 128.529C199.51 128.529 197.62 136.196 198.11 147.361C198.164 148.528 200.172 154.896 200.6 157.625C204.241 181.029 218.347 253.777 218.347 253.777L233.496 251.343L224.681 147.944L229.956 131.056L199.518 128.529H199.51Z" fill="#263238"/>
<path d="M203.728 144.142C207.688 141.872 210.878 138.295 212.683 134.104" stroke="black" stroke-linecap="round" stroke-linejoin="round"/>
<path d="M232.337 88.3297C231.792 84.7374 232.601 79.279 231.87 75.6867C231.092 71.8301 228.369 68.7743 224.455 68.3078C218.456 67.5924 210.543 66.7993 200.078 68.1134L198.374 91.9842L198.024 117.154C198.024 117.154 198.234 127.176 197.098 132.852C211.088 139.321 226.517 141.755 236.134 137.012C236.134 137.012 233.426 95.5532 232.329 88.3297H232.337Z" fill="#EDCB30"/>
<path d="M207.867 67.468C211.57 64.4356 211.415 56.5046 210.855 51.8082L221.063 61.0144C220.798 61.5353 220.58 62.0796 220.394 62.6394C220.02 63.6347 219.911 64.7 220.075 65.7496C220.246 66.6127 221.156 69.0309 221.156 69.0309C221.156 69.0309 223.241 72.701 217.095 72.7398C216.651 72.7398 216.2 72.7165 215.764 72.6154C211.376 71.6435 207.867 67.4758 207.867 67.4758V67.468Z" fill="#8E4B4C"/>
<path opacity="0.2" d="M212.621 56.6135C211.889 62.0719 217.32 64.8244 220.075 65.7575C219.911 64.7078 220.02 63.6425 220.394 62.6473L212.621 56.6135Z" fill="black"/>
<path d="M209.151 47.6872C210.31 54.172 210.823 57.8576 214.605 60.8045C220.293 65.2443 228.081 61.4498 228.945 54.7318C229.723 48.6902 227.7 39.0953 220.814 37.2758C214.029 35.4797 207.991 41.1947 209.143 47.6794L209.151 47.6872Z" fill="#8E4B4C"/>
<path d="M207.042 38.8153C207.595 34.8654 217.515 33.7457 220.503 35.4097C220.954 35.6585 215.398 39.1652 215.741 39.002L213.08 40.2305C212.644 40.1838 211.858 40.7592 211.57 42.0888C211.57 42.0888 213.103 52.749 210.333 56.1858C207.688 55.2683 207.058 51.0462 205.984 48.6047C204.381 44.9735 202.335 39.6162 207.042 38.8076V38.8153Z" fill="#263238"/>
<path d="M207.112 53.4177C207.844 55.0428 209.275 56.178 210.683 56.6757C212.8 57.4299 213.305 55.2139 212.885 53.1767C212.504 51.3417 211.687 49.149 209.485 49.2734C207.314 49.3978 206.28 51.5594 207.112 53.4177Z" fill="#8E4B4C"/>
<path d="M218.168 48.1848C218.246 48.8535 218.674 49.3511 219.118 49.2967C219.569 49.2423 219.872 48.6591 219.795 47.9904C219.717 47.3217 219.289 46.8241 218.845 46.8785C218.394 46.933 218.091 47.5161 218.168 48.1848Z" fill="#263238"/>
<path d="M224.93 47.936C225.008 48.6047 225.435 49.1024 225.879 49.0479C226.33 48.9935 226.634 48.4103 226.556 47.7416C226.478 47.0729 226.05 46.5753 225.607 46.6297C225.155 46.6842 224.852 47.2673 224.93 47.936Z" fill="#263238"/>
<path d="M223.521 47.796C223.521 47.796 226.081 50.8829 226.929 52.1581C226.066 53.0989 224.37 52.8967 224.37 52.8967L223.521 47.796Z" fill="#703131"/>
<path d="M216.955 45.5567C217.064 45.5878 217.188 45.5567 217.274 45.4789C218.316 44.4914 219.483 44.7247 219.491 44.7247C219.662 44.7636 219.841 44.6547 219.88 44.4837C219.919 44.3126 219.81 44.1493 219.639 44.1104C219.577 44.0949 218.114 43.8072 216.822 45.028C216.69 45.1524 216.69 45.3468 216.822 45.4712C216.861 45.51 216.908 45.5411 216.962 45.5489L216.955 45.5567Z" fill="#263238"/>
<path opacity="0.2" d="M208.443 51.4428C208.668 51.0229 209.205 50.8207 209.688 50.8829C210.17 50.9451 210.598 51.2251 210.925 51.575C211.321 51.9948 211.602 52.5158 211.734 53.0679" stroke="black" stroke-width="0.5" stroke-linecap="round" stroke-linejoin="round"/>
<path d="M228.415 44.7792C228.478 44.7636 228.524 44.7247 228.571 44.6703C228.68 44.5303 228.657 44.336 228.517 44.2271C227.116 43.1541 225.7 43.6206 225.638 43.6362C225.467 43.6906 225.381 43.8694 225.435 44.0405C225.49 44.2038 225.677 44.2893 225.84 44.2349C225.895 44.2115 226.992 43.8617 228.112 44.7247C228.198 44.7947 228.314 44.8103 228.415 44.7714V44.7792Z" fill="#263238"/>
<path d="M224.082 55.0971C223.514 55.8047 222.992 56.5511 222.526 57.3365C222.378 57.282 222.222 57.2198 222.082 57.1576C220.067 56.3412 219.39 55.307 219.273 54.3895C219.219 53.9463 219.273 53.4876 219.437 53.0677C219.522 52.8267 219.631 52.6012 219.779 52.3912C220.588 53.4643 222.409 54.3662 223.405 54.8016C223.84 54.9727 224.089 55.0893 224.089 55.0893L224.082 55.0971Z" fill="#263238"/>
<path d="M223.42 54.794L222.946 55.4393C221.055 54.6696 219.818 53.8842 219.46 53.0523C219.546 52.8112 219.654 52.5857 219.802 52.3758C220.619 53.4566 222.432 54.3508 223.428 54.7862L223.42 54.794Z" fill="white"/>
<path d="M222.105 57.1422C220.09 56.3257 219.413 55.2916 219.296 54.3741C220.059 54.7007 220.751 55.1516 221.358 55.7192C221.747 56.1002 222.012 56.5979 222.105 57.1422Z" fill="#FB504E"/>
<path d="M210.279 37.96C210.279 37.96 214.037 28.3806 223.008 29.3059C222.168 29.578 221.397 30.0135 220.72 30.5733C220.72 30.5733 228.306 29.0959 231.263 34.22L229.707 33.5202C229.707 33.5202 232.127 37.7579 230.15 40.938L229.575 39.5073C229.575 39.5073 226.852 43.7217 222.043 43.1074L223.576 42.1121C223.576 42.1121 215.492 42.7109 213.313 40.8836C212.193 40.0205 211.181 39.033 210.287 37.9445L210.279 37.96Z" fill="#263238"/>
<path d="M199.689 162.78C199.689 162.78 198.413 154.764 197.519 153.869C196.624 152.968 191.419 152.252 190.594 152.968C189.769 153.691 187.303 162.181 187.303 162.181L184.774 162.531C184.774 162.531 187.863 151.77 191.644 151.7C195.433 151.63 198.553 152.695 199.083 153.792C199.612 154.88 202.195 162.788 202.195 162.788H199.689V162.78Z" fill="#B97964"/>
<path d="M196.834 158.659H187.349V168.138H196.834V158.659Z" fill="#FB504E"/>
<path d="M181.794 163.254C181.195 160.51 179.608 157.99 177.406 156.257C176.573 155.603 175.453 155.036 174.48 155.471C173.718 155.813 173.313 156.715 173.399 157.547C173.484 158.379 173.99 159.118 174.62 159.662C175.25 160.206 176.005 160.587 176.752 160.961C178.332 161.754 179.903 162.539 181.483 163.332" fill="#579A54"/>
<path d="M182.346 161.637C182.323 157.337 181.133 153.045 178.946 149.344C178.682 148.893 178.386 148.434 177.966 148.116C177.546 147.797 176.978 147.634 176.488 147.82C175.639 148.147 175.461 149.29 175.655 150.176C175.896 151.265 176.472 152.244 177.032 153.201C178.814 156.218 180.604 159.235 182.385 162.244" fill="#579A54"/>
<path d="M183.288 163.729C184.968 160.238 185.77 156.319 185.599 152.447C185.56 151.615 185.311 150.58 184.494 150.417C183.957 150.308 183.42 150.666 183.148 151.14C182.876 151.615 182.821 152.174 182.774 152.719C182.455 156.669 182.564 160.65 183.101 164.576" fill="#579A54"/>
<path d="M197.301 162.959C197.301 162.959 204.98 143.956 208.824 145.736C212.668 147.517 206.949 163.34 206.949 163.34L197.301 162.967V162.959Z" fill="#FDAD6A"/>
<path d="M168.614 205.079L172.014 161.388L200.071 162.127L211.034 161.388L215.079 206.922L198.242 209.138L168.614 205.079Z" fill="#7D8488"/>
<path d="M199.386 162.104L198.242 209.138L215.079 206.922L211.034 161.388L199.386 162.104Z" fill="#B97964"/>
<path d="M199.386 162.104L198.242 209.138L215.079 206.922L211.034 161.388L199.386 162.104Z" fill="#61686B"/>
<path d="M199.503 159.32C199.503 159.32 203.619 160.168 205.47 159.678C205.47 159.678 201.876 156.98 199.503 159.32Z" fill="#FE7F3A"/>
<path d="M201.277 154.927C201.277 154.927 204.91 155.565 206.552 155.199C206.552 155.199 203.377 153.162 201.277 154.927Z" fill="#FE7F3A"/>
<path d="M197.316 162.78C197.316 162.78 196.04 154.764 195.145 153.869C194.251 152.968 189.045 152.252 188.221 152.968C187.396 153.691 184.922 162.181 184.922 162.181L182.393 162.531C182.393 162.531 185.482 151.77 189.263 151.7C193.053 151.63 196.173 152.695 196.702 153.792C197.231 154.88 199.814 162.788 199.814 162.788H197.308L197.316 162.78Z" fill="#B97964"/>
<path d="M195.107 117.768C195.449 117.604 201.316 93.1738 201.316 93.1738L189.295 90.4757C189.295 90.4757 185.015 114.09 184.86 116.757C184.712 119.424 187.731 143.831 187.731 143.831L195.153 142.914C195.153 142.914 194.764 117.939 195.107 117.776V117.768Z" fill="#8E4B4C"/>
<path d="M200.086 68.1056C200.086 68.1056 194.048 68.6188 191.909 74.9169C189.94 80.7175 186.027 94.6978 186.027 94.6978L201.316 98.7411L205.424 82.8168L200.086 68.1134V68.1056Z" fill="#EDCB30"/>
<path d="M195.153 142.906C195.153 142.906 198.834 151.319 198.834 152.695L197.246 153.387C197.246 153.387 197.729 157.244 196.352 157.244C194.974 157.244 192.827 155.176 192.827 155.176C192.827 155.176 190.018 156 189.466 154.072C189.466 154.072 187.948 155.176 187.536 152.283C187.124 149.391 187.536 142.229 187.536 142.229L194.943 139.578L195.161 142.914L195.153 142.906Z" fill="#8E4B4C"/>
<path opacity="0.4" d="M200.04 98.4456L202.965 86.5336L201.316 102.17L198.888 103.158L200.04 98.4456Z" fill="black"/>
<path opacity="0.7" d="M220.394 99.1843C225.499 99.1843 229.637 96.5003 229.637 93.1894C229.637 89.8785 225.499 87.1945 220.394 87.1945C215.289 87.1945 211.15 89.8785 211.15 93.1894C211.15 96.5003 215.289 99.1843 220.394 99.1843Z" fill="white"/>
<path d="M59.8096 130.838L56.3161 192.133L55.2891 246.833L62.0815 248.458C64.5713 237.06 72.5231 216.268 72.7176 204.659C72.7099 200.678 71.8073 195.647 72.0952 192.506C72.3442 189.738 74.0948 185.29 76.0633 178.611C77.6583 170.999 79.8836 163.869 78.771 156.07C78.771 156.07 87.423 147.206 84.2641 135.885L59.8018 130.831L59.8096 130.838Z" fill="#579A54"/>
<path opacity="0.4" d="M59.8096 130.838L56.3161 192.133L55.2891 246.833L62.0815 248.458C64.5713 237.06 72.5231 216.268 72.7176 204.659C72.7099 200.678 71.8073 195.647 72.0952 192.506C72.3442 189.738 74.0948 185.29 76.0633 178.611C77.6583 170.999 79.8836 163.869 78.771 156.07C78.771 156.07 87.423 147.206 84.2641 135.885L59.8018 130.831L59.8096 130.838Z" fill="black"/>
<path d="M46.3258 260.853C47.3062 260.231 48.4266 259.756 49.6248 259.461C49.6248 259.461 53.2116 256.685 55.0634 248.217L59.7318 247.308C61.3346 247.028 62.9841 247.572 63.8866 248.676C64.0111 248.832 64.1123 249.003 64.1745 249.174C64.3846 250.076 64.5324 250.985 64.6025 251.903C64.797 255.013 64.7581 258.139 64.4935 261.249H63.6221L63.412 255.379C63.412 253.388 61.3735 255.705 60.7977 257.828C60.2142 259.958 59.0082 262.283 53.5851 262.283C47.3373 262.307 44.7074 262.081 46.3336 260.86L46.3258 260.853Z" fill="#263238"/>
<path d="M55.3202 245.169C55.3202 245.169 54.8923 249.042 53.1805 253.334C52.4725 255.542 51.2509 257.618 49.5703 259.461C49.5703 259.461 53.624 260.098 55.4291 257.921C57.2264 255.752 59.7785 248.264 63.8866 248.715C63.5754 248.163 63.1086 246.585 62.6495 246.102C62.4628 246.134 55.328 245.177 55.328 245.177L55.3202 245.169Z" fill="#FDAD6A"/>
<path opacity="0.4" d="M75.1996 181.504L69.1774 156.536L72.7721 189.295L75.1996 181.504Z" fill="black"/>
<path d="M103.078 202.435C100.915 198.983 94.8457 194.442 93.7798 191.355L95.4448 158.216C95.4448 158.216 101.693 143.427 91.2744 130.131L89.6171 124.82L62.455 128.661L78.911 196.907C79.3234 198.392 80.0159 199.768 80.9495 200.942L112.726 242.541L119.362 239.96C115.169 229.043 110.259 213.889 103.078 202.427V202.435Z" fill="#579A54"/>
<path opacity="0.4" d="M103.078 202.435C100.915 198.983 94.8457 194.442 93.7798 191.355L95.4448 158.216C95.4448 158.216 101.693 143.427 91.2744 130.131L89.6171 124.82L62.455 128.661L78.911 196.907C79.3234 198.392 80.0159 199.768 80.9495 200.942L112.726 242.541L119.362 239.96C115.169 229.043 110.259 213.889 103.078 202.427V202.435Z" fill="black"/>
<path d="M115.145 260.588C115.495 259.422 116.048 258.271 116.764 257.19C116.764 257.19 117.728 252.548 113.815 244.889L116.764 240.87C117.798 239.517 119.386 238.739 120.763 238.926C120.957 238.957 121.136 239.011 121.3 239.089C122.023 239.61 122.708 240.193 123.338 240.823C125.439 243.016 127.369 245.372 129.119 247.891L128.458 248.513L124.614 244.275C123.362 242.782 123.276 245.97 124.179 247.976C125.073 249.982 125.626 252.587 121.525 256.467C116.826 260.954 114.694 262.664 115.153 260.588H115.145Z" fill="#263238"/>
<path d="M111.084 240.395C111.084 240.395 114.212 245.628 115.604 250.06C116.46 252.214 116.834 254.648 116.717 257.221C116.717 257.221 120.179 254.795 120.172 251.88C120.172 248.972 117.394 241.554 120.778 238.941C120.195 238.747 119.572 238.638 118.919 238.607L117.923 236.158C115.993 237.083 111.076 240.387 111.076 240.387L111.084 240.395Z" fill="#FDAD6A"/>
<path d="M68.3293 90.779L74.2348 84.4575L88.5356 83.7577C88.5356 83.7577 92.8616 84.8618 95.7793 88.7573L94.231 102.893C93.8575 103.749 90.5119 114.183 90.3018 115.07C89.1969 119.649 89.4148 119.245 89.1891 121.858C89.5004 123.903 92.4414 128.747 93.1261 130.846C93.1261 130.846 72.9043 149.119 57.6465 137.245L59.0393 122.868C59.6695 118.157 62.206 112.061 61.6224 104.697C61.2801 100.389 65.2949 93.8658 68.3215 90.779H68.3293Z" fill="#EDCB30"/>
<path d="M98.6193 83.4233C100.564 77.3584 95.7249 77.9572 97.9579 70.1506C100.409 61.5586 92.5582 57.6631 92.5582 57.6631C92.5582 57.6631 90.4807 53.2388 86.7149 51.3416C81.8987 48.9156 68.1815 49.5921 68.8973 61.2398C69.3253 68.1834 68.2904 67.6935 66.7343 70.2361C64.5324 73.8361 66.7966 79.8777 62.595 81.4717C62.595 81.4717 79.16 82.8168 94.2154 86.8368C94.2154 86.8368 97.4366 87.1323 98.6193 83.4233Z" fill="#263238"/>
<path d="M74.5227 84.8774C76.7013 83.9832 77.2849 82.8713 77.3471 81.1918C77.3938 80.2432 77.2537 79.2168 77.0592 78.2138L79.0199 77.5295L86.536 72.5377C85.0343 76.2388 83.8906 82.6147 86.6994 85.5694C86.6994 85.5694 83.2837 87.3578 79.5957 89.4105C78.8254 89.8382 72.0718 93.9903 72.0718 93.9903L74.5227 84.8852V84.8774Z" fill="#FDAD6A"/>
<path opacity="0.2" d="M77.3315 81.5572C79.2533 80.8963 81.4942 79.5201 81.6809 77.4673C81.7587 76.5965 81.7354 75.7567 81.642 75.2047L77.2226 79.0846C77.3549 79.8855 77.3549 80.3987 77.3315 81.5572Z" fill="black"/>
<path d="M89.2048 65.703C87.2985 71.97 86.6294 74.6526 82.6379 77.3274C76.6391 81.3395 69.3564 78.0738 69.3486 71.4724C69.3486 65.5319 72.4531 56.2791 79.2845 54.8872C86.0147 53.5188 91.1032 59.4359 89.2048 65.703Z" fill="#FDAD6A"/>
<path d="M80.4982 66.0762C80.327 66.7449 79.8446 67.227 79.4245 67.1492C79.0043 67.0715 78.802 66.465 78.9732 65.7963C79.1444 65.1276 79.6268 64.6455 80.0469 64.7233C80.4671 64.801 80.6694 65.4075 80.4982 66.0762Z" fill="#263238"/>
<path d="M74.1959 64.7621C74.0326 65.4075 73.5502 65.874 73.13 65.7962C72.7098 65.7185 72.4998 65.1276 72.6709 64.4822C72.8343 63.8368 73.3167 63.3703 73.7369 63.448C74.157 63.5258 74.3671 64.1167 74.1959 64.7621Z" fill="#263238"/>
<path d="M82.3111 64.0001C82.2255 63.9923 82.1477 63.9535 82.101 63.8835C81.3074 62.7716 80.1325 62.8649 80.1169 62.8649C79.9458 62.8804 79.7979 62.7483 79.7902 62.5772C79.7902 62.3984 79.9302 62.2506 80.1014 62.2351C80.1636 62.2351 81.6342 62.1107 82.6223 63.4947C82.7235 63.6347 82.6845 63.829 82.5367 63.9379C82.4667 63.9923 82.3811 64.0157 82.3033 64.0079L82.3111 64.0001Z" fill="#263238"/>
<path d="M72.7409 61.1154C72.6787 61.0843 72.6398 61.0221 72.6242 60.9443C72.5931 60.7888 72.702 60.6178 72.8654 60.5633C74.4916 60.0424 75.4486 60.8899 75.4875 60.9288C75.6042 61.0299 75.5964 61.2165 75.4719 61.3487C75.3552 61.4809 75.1607 61.4964 75.0518 61.3953C75.0129 61.3642 74.2659 60.7189 72.9666 61.131C72.881 61.1543 72.8032 61.1465 72.7409 61.1076V61.1154Z" fill="#263238"/>
<path d="M75.9777 64.801C75.9777 64.801 74.4838 66.9859 73.0522 68.2456C72.8032 68.4633 72.8421 68.8676 73.13 69.0465C73.8614 69.4974 74.8339 69.4275 74.8339 69.4275L75.9777 64.801Z" fill="#FE7F3A"/>
<path d="M80.2726 64.801L78.8799 64.1556C78.8799 64.1556 79.4556 65.4153 80.2726 64.801Z" fill="#263238"/>
<path d="M73.8847 63.4947L72.4919 62.8494C72.4919 62.8494 73.0677 64.109 73.8847 63.4947Z" fill="#263238"/>
<path d="M86.5282 67.4525C86.5282 67.4525 84.2562 61.8152 85.2522 57.8342C85.2522 57.8342 79.2844 54.8873 72.8654 60.5712C71.8462 61.4731 70.9981 63.1604 69.9633 64.5522C69.9633 64.5522 71.2626 52.1503 82.2644 53.3788C93.2429 54.5996 92.2392 70.1739 85.9291 74.1861C85.9291 74.1861 87.9365 70.9748 86.536 67.4525H86.5282Z" fill="#263238"/>
<path d="M90.0606 71.3091C89.0335 72.4599 87.6408 73.0353 86.4581 73.0819C84.6764 73.1597 84.3652 70.2594 85.2911 68.681C86.1236 67.2659 87.9987 66.5972 89.5704 67.2659C91.1265 67.9268 91.2277 69.9795 90.0606 71.3013V71.3091Z" fill="#FDAD6A"/>
<path opacity="0.2" d="M86.5593 70.2283C86.7227 69.6296 87.1351 69.1086 87.672 68.7976C88.2088 68.4943 88.8702 68.4088 89.4693 68.5721" stroke="black" stroke-linecap="round" stroke-linejoin="round"/>
<path d="M74.9351 71.1847C75.2619 72.0944 75.542 73.7662 75.542 73.7662C75.682 73.7662 75.8221 73.7662 75.9621 73.7662C77.8762 73.7195 78.7476 72.9964 79.1288 72.2111C79.3389 71.7756 79.3934 71.3247 79.3934 70.9514C79.3934 70.5238 79.3156 70.2128 79.3156 70.2128C78.3197 70.9126 76.5379 71.1069 75.5809 71.1614C75.1841 71.1925 74.9273 71.1847 74.9273 71.1847H74.9351Z" fill="#263238"/>
<path d="M75.363 71.1147L75.5731 71.9156C77.4794 71.8689 78.8176 71.5423 79.3934 70.8892C79.3934 70.4304 79.3156 70.1039 79.3156 70.1039C78.2652 70.8426 76.3745 71.0447 75.363 71.1147Z" fill="white"/>
<path d="M75.7676 73.875C77.7905 73.8284 78.7164 73.0586 79.1132 72.2266C78.4208 72.2733 77.596 72.4132 76.8802 72.7787C76.3278 73.0508 75.9854 73.4629 75.7676 73.875Z" fill="#FB504E"/>
<g opacity="0.1">
<path d="M87.0728 56.8467C87.3919 59.4126 88.6834 61.7763 90.7686 63.3314C92.0524 64.2878 93.6008 64.8476 94.3944 66.3328C95.188 67.8179 95.6549 69.9328 95.3514 71.5579C95.0869 72.973 94.091 74.0616 93.2429 75.1657C92.3948 76.2699 91.749 77.3818 91.5623 78.7502C91.2043 81.3317 92.5193 83.781 94.7523 85.064C95.0791 85.2506 95.3748 84.7452 95.048 84.5585C92.1225 82.879 91.251 79.2168 93.0873 76.3787C94.4722 74.2327 96.2617 72.7242 95.9739 69.9406C95.8494 68.7276 95.5537 67.4291 95.0324 66.3172C94.5111 65.2053 93.6397 64.4666 92.6126 63.8213C91.36 63.036 90.2007 62.2584 89.3137 61.0454C88.4267 59.8324 87.8431 58.3629 87.6564 56.8467C87.6097 56.4812 87.0262 56.4734 87.0728 56.8467Z" fill="white"/>
</g>
<g opacity="0.1">
<path d="M87.633 56.8389C87.2129 53.9464 84.5597 52.2125 81.9143 51.536C79.2689 50.8595 75.6742 50.3697 73.2233 52.0103C72.9121 52.2202 73.2078 52.7257 73.519 52.5157C75.7832 50.9995 79.0199 51.4505 81.5252 52.0414C84.0306 52.6324 86.6605 54.1952 87.0728 56.9944C87.1273 57.3676 87.6875 57.2043 87.633 56.8389Z" fill="white"/>
</g>
<g opacity="0.1">
<path d="M86.2714 57.4998C83.8361 54.8094 79.8913 53.6198 76.3901 54.6773C72.8888 55.7347 70.4612 58.6117 69.7766 62.0096C69.7065 62.375 70.2667 62.5305 70.3368 62.1651C70.9825 58.9538 73.3868 56.1935 76.5457 55.2371C79.7046 54.2807 83.556 55.3615 85.8591 57.9119C86.1081 58.1918 86.5204 57.7797 86.2714 57.4998Z" fill="white"/>
</g>
<path d="M55.7637 77.5062L61.07 74.6215L62.5717 72.0167L69.3642 75.3291L68.2049 78.2682L64.688 81.946L55.7637 77.5062Z" fill="#579A54"/>
<path d="M71.2704 80.5153C71.037 80.4531 68.2127 78.0272 68.2127 78.0272L64.688 81.9382L71.2704 80.5075V80.5153Z" fill="#579A54"/>
<path d="M55.7637 77.5062L52.3091 94.1458L60.4554 98.5234L64.688 81.946L55.7637 77.5062Z" fill="#579A54"/>
<path d="M71.2704 80.5153L66.392 96.1985L60.4554 98.5234C60.5877 98.0569 64.688 81.9383 64.688 81.9383L71.2704 80.5076V80.5153Z" fill="#579A54"/>
<path opacity="0.4" d="M54.0986 85.5383C54.0986 85.5383 53.2272 88.2831 55.0634 88.4308C56.8996 88.5786 58.5258 87.5055 60.3465 87.7155C62.1671 87.9254 61.2412 91.0356 63.1008 91.5799C64.9604 92.1164 64.3457 88.7341 66.5632 87.8865C68.7806 87.0312 69.8777 85.0018 69.8777 85.0018L66.392 96.2063L60.4554 98.5312L52.3091 94.1458L54.0986 85.5383Z" fill="white"/>
<path d="M60.2608 90.2969C60.113 90.8801 59.6306 91.2611 59.1793 91.1445C58.7281 91.0278 58.4869 90.468 58.6347 89.8848C58.7825 89.3017 59.2649 88.9207 59.7162 89.0373C60.1675 89.1539 60.4087 89.7138 60.2608 90.2969Z" fill="#579A54"/>
<path opacity="0.3" d="M68.0804 78.1671L61.07 74.6215L55.7637 77.5062L64.688 81.946L68.0804 78.1671Z" fill="black"/>
<path opacity="0.3" d="M71.1382 80.5464L68.0804 78.1671L64.688 81.946L71.1382 80.5464Z" fill="white"/>
<path opacity="0.2" d="M68.0804 78.1671L69.053 75.1814L62.5717 72.0167L61.0701 74.6215L68.0804 78.1671Z" fill="black"/>
<path d="M63.7543 78.4782C63.6376 78.9447 62.9296 79.1624 62.1671 78.968C61.4124 78.7736 60.8911 78.2449 61.0078 77.7784C61.0389 77.654 61.0934 77.1874 61.2023 77.1019C61.498 76.8764 62.0426 77.1563 62.595 77.2963C63.1008 77.4285 63.731 77.4674 63.91 77.7784C63.91 77.7784 63.7932 78.3382 63.7543 78.4859V78.4782Z" fill="white"/>
<path opacity="0.2" d="M63.7543 78.4782C63.6376 78.9447 62.9296 79.1624 62.1671 78.968C61.4124 78.7736 60.8911 78.2449 61.0078 77.7784C61.0389 77.654 61.0934 77.1874 61.2023 77.1019C61.498 76.8764 62.0426 77.1563 62.595 77.2963C63.1008 77.4285 63.731 77.4674 63.91 77.7784C63.91 77.7784 63.7932 78.3382 63.7543 78.4859V78.4782Z" fill="black"/>
<path d="M63.8789 77.9261C63.7621 78.3927 63.0541 78.6104 62.2916 78.416C61.5369 78.2216 61.0156 77.6929 61.1323 77.2263C61.249 76.7598 61.957 76.5421 62.7195 76.7365C63.4743 76.9309 63.9956 77.4596 63.8789 77.9261Z" fill="white"/>
<path opacity="0.4" d="M66.2208 86.2148C66.1197 86.6191 65.7851 86.8757 65.4739 86.798C65.1627 86.7202 64.9993 86.3314 65.1004 85.9271C65.2016 85.5228 65.5361 85.2662 65.8474 85.3439C66.1586 85.4217 66.322 85.8105 66.2208 86.2148Z" fill="white"/>
<path opacity="0.2" d="M55.7637 77.5062L52.3091 94.1458L60.4554 98.5234L64.688 81.946L55.7637 77.5062Z" fill="black"/>
<path d="M76.6312 88.7107C76.6312 91.4477 74.4138 93.6637 71.675 93.6637C68.9362 93.6637 66.7188 91.4477 66.7188 88.7107C66.7188 85.9737 68.9362 83.7577 71.675 83.7577C74.4138 83.7577 76.6312 85.9737 76.6312 88.7107Z" fill="#FB504E"/>
<path d="M69.9944 89.8148C69.9944 92.5518 67.7769 94.7678 65.0382 94.7678C62.2994 94.7678 60.0819 92.5518 60.0819 89.8148C60.0819 87.0778 62.2994 84.8618 65.0382 84.8618C67.7769 84.8618 69.9944 87.0778 69.9944 89.8148Z" fill="#FE7F3A"/>
<path d="M51.5155 81.3317C51.4221 79.0768 51.5699 77.0163 51.4065 75.0647C51.2431 73.113 50.9942 70.2672 50.9942 70.2672C50.9942 69.9406 50.8619 69.684 50.7063 69.6607C50.5507 69.6607 50.5584 70.0961 50.5896 70.3994C51.0331 74.155 51.1264 78.066 50.8619 81.9305C51.0564 81.6194 51.3287 81.0518 51.5155 81.324V81.3317Z" fill="#579A54"/>
<path opacity="0.1" d="M51.5155 81.3317C51.4221 79.0768 51.5699 77.0163 51.4065 75.0647C51.2431 73.113 50.9942 70.2672 50.9942 70.2672C50.9942 69.9406 50.8619 69.684 50.7063 69.6607C50.5507 69.6607 50.5584 70.0961 50.5896 70.3994C51.0331 74.155 51.1264 78.066 50.8619 81.9305C51.0564 81.6194 51.3287 81.0518 51.5155 81.324V81.3317Z" fill="black"/>
<path d="M52.3246 81.3473C52.5658 79.1235 52.9937 77.2029 53.1182 75.2513C53.2427 73.2996 53.4372 70.3994 53.4372 70.3994C53.4761 70.0806 53.3983 69.7462 53.2427 69.6296C53.0949 69.5363 53.0404 69.9717 53.0249 70.2905C52.9004 74.1783 52.4258 78.0038 51.6166 81.5805C51.8344 81.3317 52.1768 80.9274 52.3168 81.3395L52.3246 81.3473Z" fill="#579A54"/>
<path opacity="0.1" d="M52.3246 81.3473C52.5658 79.1235 52.9937 77.2029 53.1182 75.2513C53.2427 73.2996 53.4372 70.3994 53.4372 70.3994C53.4761 70.0806 53.3983 69.7462 53.2427 69.6296C53.0949 69.5363 53.0404 69.9717 53.0249 70.2905C52.9004 74.1783 52.4258 78.0038 51.6166 81.5805C51.8344 81.3317 52.1768 80.9274 52.3168 81.3395L52.3246 81.3473Z" fill="black"/>
<path d="M51.8811 68.6654C51.8656 68.4788 51.7956 68.3389 51.7022 68.3156C51.6166 68.3156 51.5855 68.4244 51.5544 68.5877L51.4143 75.6012L51.2509 81.5883C51.3676 81.7672 51.531 81.7983 51.6711 81.6661C51.8967 81.4251 51.8889 68.6654 51.8889 68.6654H51.8811Z" fill="#579A54"/>
<path d="M52.5114 68.7665C52.5425 68.5877 52.6203 68.4633 52.7137 68.4555C52.8071 68.4555 52.8148 68.5799 52.8382 68.751L52.4414 75.7256L52.1613 81.705C52.029 81.8605 51.8734 81.8605 51.7489 81.6972C51.64 81.5417 51.8889 77.6306 52.1224 74.1783C52.3402 71.3324 52.5192 68.7587 52.5192 68.7587L52.5114 68.7665Z" fill="#579A54"/>
<path d="M49.1968 99.2465C49.1968 99.2465 47.9908 98.4145 48.481 89.2239C48.7923 83.3689 48.59 81.0363 49.6092 80.5775C50.6285 80.1188 54.1998 79.8544 54.3865 81.8838C54.581 83.9132 52.2468 98.1346 49.1891 99.2387L49.1968 99.2465Z" fill="#579A54"/>
<path opacity="0.3" d="M49.1968 99.2465C49.1968 99.2465 47.9908 98.4145 48.481 89.2239C48.7923 83.3689 48.59 81.0363 49.6092 80.5775C50.6285 80.1188 54.1998 79.8544 54.3865 81.8838C54.581 83.9132 52.2468 98.1346 49.1891 99.2387L49.1968 99.2465Z" fill="black"/>
<path opacity="0.3" d="M48.8 92.995C49.5236 92.8861 50.2784 92.9406 50.9786 93.1583" stroke="black" stroke-linecap="round" stroke-linejoin="round"/>
<path opacity="0.3" d="M50.9475 87.7154C51.6711 87.6066 52.4258 87.661 53.1261 87.8787" stroke="black" stroke-linecap="round" stroke-linejoin="round"/>
<path opacity="0.3" d="M49.7104 84.1698C50.434 84.0609 51.1887 84.1154 51.889 84.3331" stroke="black" stroke-linecap="round" stroke-linejoin="round"/>
<path opacity="0.3" d="M50.0683 87.8398L50.4495 87.7621" stroke="black" stroke-linecap="round" stroke-linejoin="round"/>
<path d="M47.2906 83.781L70.7258 87.3266L79.3856 87.2256L75.363 129.548L62.7896 129.719L39.9768 123.794L47.2906 83.781Z" fill="#7D8488"/>
<path opacity="0.4" d="M62.7896 129.719L75.363 129.548L79.3856 87.2256L70.7258 87.3267L62.7896 129.719Z" fill="black"/>
<path d="M45.1043 95.4443C45.1043 95.4443 51.6944 98.7411 52.029 100.25C52.3714 101.758 50.2317 101.19 50.2317 101.19C50.2317 101.19 52.5425 101.968 52.348 102.986C52.1146 104.215 49.8738 103.609 49.8738 103.609C49.8738 103.609 51.7333 104.316 51.4999 105.218C51.2587 106.151 48.6833 105.646 48.6833 105.646C48.6833 105.646 49.8971 106.392 49.3836 106.929C48.8623 107.465 43.3847 106.485 42.0076 105.125C40.6304 103.764 42.1398 96.7816 42.7779 95.3276C43.4236 93.8736 44.0772 92.9794 45.8512 93.0572L45.0965 95.4598L45.1043 95.4443Z" fill="#FDAD6A"/>
<path opacity="0.2" d="M50.2083 101.299C50.2083 101.299 50.2083 101.299 50.2006 101.299L46.2402 99.7596C46.1858 99.7363 46.1624 99.6741 46.1858 99.6119C46.2091 99.5497 46.2714 99.5186 46.3258 99.5419L50.2862 101.081C50.3406 101.105 50.364 101.167 50.3406 101.229C50.3173 101.284 50.2628 101.315 50.2161 101.307L50.2083 101.299Z" fill="black"/>
<path opacity="0.2" d="M49.7337 103.686L45.8045 102.504C45.7501 102.489 45.7189 102.427 45.7423 102.364C45.7578 102.302 45.8123 102.271 45.8745 102.279L49.8038 103.461C49.8582 103.476 49.8893 103.539 49.866 103.601C49.8504 103.663 49.7882 103.702 49.7337 103.686Z" fill="black"/>
<path opacity="0.2" d="M48.5277 105.716L45.5867 104.923C45.5322 104.907 45.5011 104.845 45.5166 104.783C45.5322 104.72 45.5944 104.682 45.6489 104.697L48.59 105.49C48.6444 105.506 48.6756 105.568 48.66 105.63C48.6444 105.692 48.5822 105.731 48.5277 105.716Z" fill="black"/>
<path d="M90.2317 84.3875C90.2317 84.3875 83.4782 88.0109 83.9606 99.0754C84.2173 104.876 83.945 131.942 86.5204 138.645L102.331 133.575L93.1728 86.067" stroke="#263238" stroke-width="2" stroke-miterlimit="10"/>
<path d="M114.383 154.764L85.5789 163.573L81.4708 139.088L105.03 131.88L114.383 154.764Z" fill="#263238"/>
<path opacity="0.4" d="M81.4708 139.088L85.5789 163.573L91.1187 161.886L83.8672 138.349L81.4708 139.088Z" fill="black"/>
<path opacity="0.4" d="M83.8672 138.35C83.8672 138.35 90.6908 151.187 99.7785 147.727C108.859 144.267 105.03 131.88 105.03 131.88" fill="black"/>
<path d="M101.459 147.455C101.553 148.007 100.899 148.574 100.004 148.73C99.1094 148.885 98.3002 148.559 98.2069 148.007C98.1135 147.455 98.7671 146.887 99.6618 146.732C100.557 146.576 101.366 146.903 101.459 147.455Z" fill="#579A54"/>
<path d="M61.5835 128.008C61.5835 128.008 61.1167 125.823 59.5606 124.836C57.9967 123.848 57.0163 122.643 55.8025 121.99C54.5888 121.337 55.2501 123.071 55.787 123.926C56.3238 124.781 56.9229 125.753 56.2227 126.049C55.5146 126.352 48.9634 125.567 48.0297 126.095C47.096 126.624 48.1153 127.083 48.1153 127.083C48.1153 127.083 46.5203 126.935 46.2868 127.549C46.2246 127.713 46.3491 128.179 47.0649 128.358C48.6755 128.762 52.1067 129.447 52.1067 129.447C51.9122 129.4 47.6173 128.871 46.9638 128.871C46.1079 128.871 45.7111 129.314 45.7266 129.804C45.75 130.512 51.0564 131.352 51.2509 131.546C51.2509 131.546 48.2164 130.955 47.6329 131.655C47.0493 132.355 48.94 132.829 50.6907 132.93C52.2935 133.023 55.4057 133.63 57.0474 133.568C59.0626 133.49 60.4009 132.984 61.1167 131.235C61.8325 129.485 61.5757 128 61.5757 128L61.5835 128.008Z" fill="#FDAD6A"/>
<path opacity="0.3" d="M48.2553 127.075C49.5313 127.223 50.7996 127.433 52.06 127.697" stroke="black" stroke-width="0.5" stroke-linecap="round" stroke-linejoin="round"/>
<path d="M85.8123 100.117L82.0699 115.661L57.6543 128.381L59.6773 133.187C59.6773 133.187 86.9172 127.402 89.0257 124.82C91.1421 122.231 95.7793 104.503 95.7793 104.503L85.8046 100.117H85.8123Z" fill="#FDAD6A"/>
<path d="M92.4025 85.9582C92.4025 85.9582 98.1991 87.0234 97.67 93.9281C97.1409 100.825 96.4484 107.52 96.4562 107.457C96.4718 107.395 83.9528 104.884 83.9528 104.884C83.9528 104.884 85.4155 95.8409 86.1858 93.9747C87.8742 89.8693 92.3947 85.9582 92.3947 85.9582H92.4025Z" fill="#EDCB30"/>
</g>
<defs>
<clipPath id="clip0_1229_845">
<rect width="305" height="266" fill="white"/>
</clipPath>
</defs>
</svg>
